<?xml version="1.0" standalone="no"?>
<!DOCTYPE svg PUBLIC "-//W3C//DTD SVG 20010904//EN"
 "http://www.w3.org/TR/2001/REC-SVG-20010904/DTD/svg10.dtd">
<svg version="1.0" xmlns="http://www.w3.org/2000/svg"
 width="1024.000000pt" height="1024.000000pt" viewBox="0 0 1024.000000 1024.000000"
 preserveAspectRatio="xMidYMid meet">

<g transform="translate(0.000000,1024.000000) scale(0.100000,-0.100000)"
fill="#ffffff" stroke="none">
<path d="M0 5132 c0 -3960 3 -5111 12 -5120 9 -9 85 -12 280 -12 l268 0 0 60
0 60 80 0 80 0 0 -37 c0 -82 2 -83 100 -83 l88 0 7 40 c7 39 8 40 46 40 32 0
39 3 39 20 0 16 7 20 30 20 23 0 30 4 30 20 0 11 4 20 9 20 5 0 12 -36 16 -80
l7 -81 87 3 86 3 6 60 c3 33 6 50 7 38 2 -20 8 -23 42 -23 33 0 40 3 40 20 0
24 22 26 55 4 20 -13 25 -25 25 -60 l0 -44 275 0 c255 0 275 1 276 18 0 9 0
45 -1 80 l-1 62 85 0 86 0 0 -67 c0 -38 4 -74 8 -81 7 -9 88 -12 373 -10 315
3 364 5 365 18 1 8 2 34 3 58 l1 42 45 0 c38 0 45 -3 45 -20 0 -13 7 -20 20
-20 13 0 20 7 20 20 0 13 7 20 20 20 18 0 20 -7 20 -60 l0 -59 360 -1 c354 0
360 0 360 20 0 17 7 20 40 20 33 0 40 -3 40 -20 0 -22 28 -28 47 -9 8 8 13 8
17 0 4 -7 43 -11 97 -11 82 0 89 1 89 20 0 11 7 20 15 20 8 0 15 9 15 20 0 18
7 20 59 20 l60 0 4 42 c2 24 4 6 5 -39 l2 -83 90 0 90 0 0 60 0 60 65 0 c55 0
65 -3 65 -17 0 -10 7 -27 15 -37 8 -11 15 -30 15 -43 l0 -23 459 0 c358 0 460
3 464 13 4 9 6 9 6 0 1 -10 41 -13 166 -13 l165 0 6 25 c3 14 4 35 1 46 -4 15
-2 19 10 15 8 -3 23 -6 34 -6 16 0 19 -7 19 -40 l0 -40 44 0 c34 0 46 4 49 18
4 16 5 16 6 0 1 -16 13 -18 95 -18 l95 0 4 43 4 42 1 -42 2 -42 180 0 c173 -1
180 0 180 19 0 17 7 20 50 20 43 0 50 3 50 20 0 13 7 20 19 20 15 0 21 -10 26
-40 l7 -40 169 0 169 0 2 63 c1 34 2 73 1 87 0 24 1 25 71 25 l71 0 -4 -87 -3
-88 445 0 445 1 7 39 c7 40 7 40 51 40 37 0 44 3 44 20 0 16 7 20 35 20 l35 0
0 -47 c0 -72 4 -74 106 -72 l90 2 -4 58 -4 59 71 0 c67 0 71 -1 72 -22 1 -22
1 -22 9 2 7 21 8 17 9 -22 2 -78 2 -78 101 -78 l87 0 6 73 c8 100 11 107 50
96 18 -5 47 -9 64 -9 26 0 33 -4 33 -20 0 -11 7 -20 15 -20 12 0 15 -13 15
-60 l0 -60 90 0 90 0 0 48 c0 59 10 122 20 122 4 0 5 -11 2 -25 -4 -25 -4 -25
72 -25 l76 0 0 -60 0 -60 89 0 c101 0 90 -9 111 97 11 56 15 63 36 63 13 0 24
5 24 10 0 6 23 10 50 10 l50 0 0 -90 0 -90 89 0 88 0 9 83 9 82 67 0 c36 0 69
-3 72 -6 4 -4 9 -31 12 -60 10 -105 6 -99 84 -99 l70 0 0 95 0 95 -71 0 -70 0
6 58 c13 118 9 112 76 112 l59 0 0 110 0 110 -64 0 -65 0 -3 85 -3 85 68 0 67
0 0 106 0 106 -65 -4 -65 -3 0 88 0 87 34 0 c18 0 48 3 65 6 l31 7 0 105 0
105 -65 -7 -65 -7 0 73 c0 54 3 69 11 58 8 -11 12 -12 16 -2 2 6 13 12 24 12
12 0 19 7 19 20 0 16 7 20 30 20 l30 0 0 109 0 109 -65 13 -65 13 1 40 c1 23
4 31 6 19 4 -21 10 -23 64 -23 l59 0 0 280 c0 273 0 280 -20 280 -11 0 -20 -4
-20 -10 0 -13 -77 -13 -85 0 -4 6 12 10 39 10 39 0 46 3 46 20 0 13 7 20 20
20 19 0 20 7 20 160 l0 160 -65 0 -65 0 1 83 c1 45 4 72 6 59 4 -20 10 -22 64
-22 l59 0 0 135 0 135 -65 0 -65 0 1 38 c0 20 3 31 6 25 8 -21 43 -15 43 7 0
17 7 20 40 20 l40 0 0 254 0 253 -57 6 c-40 4 -60 2 -65 -6 -4 -7 -7 13 -6 43
0 30 3 45 5 33 4 -19 11 -23 44 -23 32 0 39 3 39 20 0 13 7 20 20 20 20 0 20
7 20 694 l0 695 -45 7 c-25 3 -54 4 -65 1 -16 -4 -20 0 -20 22 0 25 3 27 35
23 21 -3 35 0 35 7 0 6 9 11 20 11 11 0 20 -4 20 -10 0 -5 5 -10 10 -10 6 0
10 63 10 170 l0 170 -62 2 c-35 0 -48 3 -30 5 26 4 32 9 32 29 0 15 6 24 16
24 39 0 44 23 44 189 0 154 -1 161 -20 161 -15 0 -20 7 -20 25 0 18 5 25 20
25 19 0 20 7 20 180 0 173 -1 180 -20 180 -11 0 -20 -4 -20 -9 0 -5 -20 -11
-45 -13 l-45 -3 0 52 0 53 45 0 c38 0 45 -3 45 -20 0 -13 7 -20 20 -20 20 0
20 7 20 360 l0 359 -65 -6 -65 -6 1 69 c0 38 3 63 6 57 6 -15 43 -17 43 -3 0
6 9 10 20 10 13 0 20 -7 20 -20 0 -13 7 -20 20 -20 19 0 20 7 20 151 l0 151
-65 -4 -65 -3 0 53 0 52 65 0 65 0 0 130 0 130 -42 2 -43 1 45 7 c43 7 42 7
-22 8 l-68 2 1 68 c1 37 4 55 6 40 4 -27 7 -28 64 -28 l59 0 0 325 0 324 -65
-6 -65 -6 1 84 c1 46 4 74 6 62 4 -19 11 -23 44 -23 32 0 39 -3 39 -20 0 -13
7 -20 20 -20 19 0 20 7 20 145 l0 145 -63 0 c-35 0 -66 2 -68 4 -2 2 -2 39 1
83 4 59 9 78 20 80 8 1 36 5 63 8 l47 6 0 105 0 104 -59 0 c-58 0 -59 1 -65
31 -12 60 -7 98 13 109 26 13 31 13 31 -5 0 -11 11 -15 40 -15 l40 0 0 131 0
132 -65 -5 -65 -6 0 89 0 89 65 0 65 0 0 100 0 100 -65 0 -65 0 0 45 0 45 -95
0 -95 0 0 -45 0 -45 -85 0 -85 0 0 45 0 45 -90 0 -90 0 0 -40 0 -40 -85 0 -85
0 0 40 0 40 -95 0 -95 0 0 -45 0 -45 -89 0 c-84 0 -89 1 -84 20 3 11 2 31 -1
45 -6 24 -9 25 -91 25 l-85 0 0 -45 0 -45 -90 0 -90 0 0 45 0 45 -90 0 c-97 0
-96 0 -91 -57 1 -19 -3 -23 -27 -23 -16 0 -57 -3 -91 -6 l-61 -7 0 47 0 46
-613 0 -613 0 0 -42 c1 -24 -2 -44 -6 -45 -5 -2 -36 -3 -71 -3 l-63 0 4 36 c3
26 1 35 -7 30 -6 -4 -11 -1 -11 8 0 13 -15 16 -90 16 -83 0 -90 -1 -90 -20 0
-11 -4 -20 -10 -20 -5 0 -10 9 -10 20 0 20 -7 20 -341 20 l-341 0 4 -45 3 -45
-82 0 -83 0 0 33 c0 18 5 38 12 45 9 9 -131 12 -630 12 l-642 0 0 -51 0 -51
-31 6 c-17 3 -55 7 -83 7 -28 1 -42 3 -31 6 29 7 65 43 65 65 0 17 -33 18
-841 18 -794 0 -840 -1 -838 -17 6 -60 3 -63 -61 -63 -53 0 -60 2 -60 20 0 13
-7 20 -20 20 -13 0 -20 7 -20 20 0 19 -7 20 -95 20 l-95 0 0 -49 0 -48 -45 10
c-33 8 -45 15 -45 29 0 11 -7 18 -20 18 -13 0 -20 7 -20 20 0 19 -7 20 -115
20 l-115 0 0 -44 c0 -25 -3 -47 -7 -49 -5 -2 -48 -2 -96 1 l-89 5 5 26 c2 14
7 34 12 43 6 16 -23 17 -454 18 l-461 0 -1 -42 c-1 -24 -3 -34 -6 -23 -3 11
-10 25 -15 30 -8 7 -9 6 -4 -2 14 -26 -6 -43 -50 -43 -37 0 -44 3 -44 20 0 13
-7 20 -20 20 -13 0 -20 7 -20 20 0 19 -7 20 -95 20 l-95 0 0 -45 0 -45 -88 0
-87 0 3 45 4 45 -96 0 -96 0 0 -45 0 -45 -72 0 c-80 0 -101 8 -98 36 6 54 7
54 -100 54 l-100 0 0 -5108z m3440 5044 c0 -24 -3 -25 -60 -24 -56 1 -60 2
-60 24 0 23 4 24 60 24 57 0 60 -1 60 -24z m1880 -6 c0 -5 9 -10 20 -10 11 0
20 -5 20 -11 0 -7 -19 -8 -57 -3 -66 7 -81 14 -35 14 18 0 32 5 32 10 0 6 5
10 10 10 6 0 10 -4 10 -10z m4058 -38 c9 -6 10 -25 6 -70 -7 -60 -8 -62 -35
-62 -16 0 -29 -4 -29 -10 0 -14 -74 -12 -88 2 -7 7 -12 35 -11 63 1 40 3 45 9
25 4 -14 8 -19 9 -12 1 6 10 12 21 12 16 0 20 7 20 30 0 29 2 30 43 30 23 0
48 -4 55 -8z m722 -82 l0 -90 -85 0 -85 0 0 59 c0 32 5 72 11 90 l11 31 74 0
74 0 0 -90z m-9909 23 c-1 -32 -8 -61 -15 -65 -7 -5 -5 -8 7 -8 10 0 17 -8 17
-20 0 -18 -7 -20 -76 -20 -69 0 -75 2 -69 18 4 9 10 27 12 40 5 19 12 22 50
22 l45 0 -4 45 c-3 40 -1 45 17 45 18 0 20 -5 16 -57z m8350 7 c12 0 19 7 19
19 0 16 9 20 55 23 l55 3 0 -67 c0 -72 3 -69 -68 -83 -19 -4 -46 -2 -62 5 -28
12 -29 14 -27 83 1 40 3 60 5 45 2 -20 9 -28 23 -28z m1148 4 c22 -5 31 -12
32 -28 1 -19 2 -18 9 4 6 19 8 12 9 -31 l1 -56 -56 -2 c-31 -1 -69 1 -85 4
-27 6 -29 10 -29 56 0 27 5 49 10 49 6 0 10 -9 10 -20 0 -15 7 -20 25 -20 20
0 25 5 25 25 0 27 2 28 49 19z m-7722 -26 c-3 -8 -6 -5 -6 6 -1 11 2 17 5 13
3 -3 4 -12 1 -19z m6951 -71 l47 1 -45 -7 c-25 -4 -48 -5 -52 -3 -5 2 -7 27
-6 55 l2 52 3 -50 4 -50 47 2z m102 52 c0 -24 -4 -38 -10 -34 -5 3 -10 22 -10
41 0 19 5 34 10 34 6 0 10 -18 10 -41z m-7743 -71 c-3 -7 -5 -2 -5 12 0 14 2
19 5 13 2 -7 2 -19 0 -25z m7575 -84 c10 -105 11 -104 -88 -104 l-84 0 0 78 0
79 73 10 c39 5 77 9 82 8 6 -1 13 -33 17 -71z m-6692 56 c0 -5 -4 -10 -10 -10
-5 0 -10 5 -10 10 0 6 5 10 10 10 6 0 10 -4 10 -10z m7048 -77 l-3 -88 -82 -3
-83 -3 0 76 c0 53 4 75 13 76 10 0 10 2 0 6 -35 13 -4 23 72 23 l86 0 -3 -87z
m355 10 c2 -43 3 -81 0 -85 -2 -5 -40 -8 -84 -8 l-79 0 0 80 0 79 63 4 c34 2
69 4 78 5 13 2 17 -12 22 -75z m-9193 -13 l0 -80 -80 0 -80 0 0 29 0 30 55 -6
c54 -6 55 -5 55 21 0 15 6 26 14 26 7 0 16 14 20 30 10 52 16 33 16 -50z
m2154 3 l1 -71 -35 -6 c-19 -3 -56 -6 -82 -6 l-48 0 0 69 0 70 48 6 c26 3 54
8 62 10 47 10 52 3 54 -72z m7398 -2 l-3 -79 -31 -6 c-17 -3 -55 -6 -84 -6
l-54 0 0 75 0 75 65 0 c37 0 65 4 65 10 0 6 10 10 23 10 21 0 22 -3 19 -79z
m-7784 63 c20 -6 22 -12 22 -74 l0 -67 -31 -7 c-17 -3 -56 -6 -85 -6 l-54 0 0
80 0 80 63 0 c34 0 72 -3 85 -6z m-880 -71 l-3 -68 -80 -3 -81 -3 -2 31 c-1
16 2 30 8 30 5 0 10 9 10 20 0 18 7 20 65 20 58 0 65 2 65 20 0 11 5 20 10 20
7 0 10 -25 8 -67z m7142 7 c0 -13 7 -20 20 -20 13 0 20 -7 20 -20 0 -14 7 -20
23 -21 45 -2 -25 -17 -85 -18 -58 -1 -58 -1 -58 29 0 23 4 30 20 30 13 0 20 7
20 20 0 13 7 20 20 20 13 0 20 -7 20 -20z m-7760 -44 c0 -18 7 -26 23 -29 12
-2 -7 -4 -43 -4 -36 0 -55 2 -42 4 15 3 22 11 22 29 0 17 5 24 20 24 15 0 20
-7 20 -24z m6720 8 c0 -19 -28 -43 -50 -44 -13 0 -13 1 0 10 12 8 11 10 -7 10
-16 0 -23 6 -23 20 0 17 7 20 40 20 30 0 40 -4 40 -16z m-607 -31 c-7 -2 -19
-2 -25 0 -7 3 -2 5 12 5 14 0 19 -2 13 -5z m331 -2 c3 -4 -6 -6 -19 -3 -14 2
-25 6 -25 8 0 8 39 4 44 -5z m2306 -116 l0 -95 -85 0 -85 0 0 90 c0 53 4 90
10 90 6 0 10 -4 10 -10 0 -5 9 -10 20 -10 11 0 20 4 20 9 0 6 21 12 48 14 26
2 50 4 55 5 4 1 7 -41 7 -93z m-360 -5 l0 -90 -85 0 c-61 0 -85 3 -85 13 0 6
5 47 12 90 l11 77 74 0 73 0 0 -90z m710 -2 l0 -93 -83 3 -83 3 4 67 c3 37 8
69 13 70 5 2 9 12 9 23 0 17 8 19 70 19 l70 0 0 -92z m-1439 68 c5 3 9 -29 9
-76 l0 -81 -77 3 c-77 3 -78 3 -81 31 -3 23 0 27 22 27 24 0 26 4 26 39 0 38
1 39 40 46 22 4 40 12 41 18 0 8 2 8 6 -1 2 -6 9 -10 14 -6z m-5998 -13 c-30
-6 -32 -43 -3 -43 14 0 20 -7 20 -22 0 -19 2 -20 11 -8 9 12 10 12 5 -3 -3
-10 -6 -25 -6 -33 0 -9 -10 -14 -27 -14 -15 0 -41 -5 -59 -12 -45 -16 -64 1
-64 59 0 64 22 81 105 80 22 0 30 -2 18 -4z m7735 -14 c5 -13 40 -11 45 4 8
18 8 -52 1 -95 l-7 -38 -51 0 c-90 0 -96 5 -96 66 0 41 4 54 15 54 8 0 15 7
15 16 0 13 7 15 38 9 20 -4 39 -11 40 -16z m-6784 -56 l-3 -68 -71 0 c-40 0
-77 4 -83 8 -8 5 -7 7 3 6 43 -4 60 2 60 21 0 13 7 20 20 20 13 0 20 7 20 20
0 13 7 20 20 20 13 0 20 7 20 20 0 11 4 20 9 20 5 0 7 -30 5 -67z m4220 -48
c3 -9 0 -15 -9 -15 -12 0 -15 14 -14 68 l1 67 8 -52 c4 -29 10 -60 14 -68z
m-6924 25 l0 -50 -85 0 c-50 0 -85 4 -85 10 0 6 5 10 10 10 6 0 10 9 10 20 0
17 7 20 40 20 33 0 40 3 40 20 0 16 7 20 35 20 l35 0 0 -50z m6378 -17 c-3
-27 -5 -28 -70 -30 -38 0 -71 3 -74 8 -3 5 -2 9 3 8 32 -6 53 3 53 21 0 17 7
20 40 20 34 0 40 3 41 23 l2 22 4 -22 c2 -13 3 -35 1 -50z m1591 45 c1 19 6
22 41 22 33 0 40 -3 40 -20 0 -13 7 -20 20 -20 16 0 20 -7 20 -30 l0 -30 -70
0 -70 0 1 53 c1 41 3 47 9 27 8 -24 8 -24 9 -2z m148 -10 c-3 -7 -5 -2 -5 12
0 14 2 19 5 13 2 -7 2 -19 0 -25z m-7788 -52 c-2 -2 -33 -6 -69 -9 -41 -3 -54
-2 -35 3 31 8 112 13 104 6z m859 -3 c-21 -2 -57 -2 -80 0 -24 2 -7 4 37 4 44
0 63 -2 43 -4z m6932 -3 c0 -5 -4 -10 -10 -10 -5 0 -10 5 -10 10 0 6 5 10 10
10 6 0 10 -4 10 -10z m-545 -105 c0 -46 -3 -87 -6 -89 -2 -3 -30 -2 -62 1 -49
5 -57 9 -58 27 -2 20 -2 20 -6 -1 -10 -51 -23 -18 -22 55 0 52 3 71 9 57 5
-11 9 -14 9 -7 1 8 17 12 46 12 25 0 45 4 45 9 0 5 10 12 23 14 12 2 22 5 23
6 0 0 0 -37 -1 -84z m-7401 44 c3 -17 6 -55 6 -83 l0 -51 -77 0 -77 0 -9 50
c-10 58 -3 95 18 95 8 0 15 5 15 10 0 6 26 10 59 10 58 0 59 -1 65 -31z m2166
-49 l0 -80 -45 0 c-38 0 -45 3 -45 20 0 13 -7 20 -19 20 -15 0 -21 10 -26 39
-4 22 -13 45 -21 52 -28 23 -13 29 71 29 l85 0 0 -80z m5595 28 c-2 -29 -4
-56 -4 -60 -1 -5 -19 -8 -41 -8 -36 0 -40 -2 -40 -25 0 -27 -1 -28 -24 -19
-10 4 -16 18 -16 39 0 50 -18 52 -23 3 -3 -41 -4 -41 -5 10 -1 29 2 52 8 52 6
0 10 10 11 23 0 12 3 16 6 10 2 -8 22 -13 44 -13 32 0 39 3 39 20 0 15 7 20
24 20 23 0 24 -3 21 -52z m363 -103 c-2 -1 -40 -5 -85 -8 l-83 -5 0 34 c0 31
3 34 30 34 17 0 30 5 30 10 0 6 9 10 19 10 11 0 22 6 25 13 5 10 7 10 12 0 3
-7 14 -13 25 -13 15 0 19 8 21 43 1 23 4 7 5 -37 2 -43 3 -80 1 -81z m362 70
l0 -85 -85 0 -85 0 0 85 0 85 85 0 85 0 0 -85z m350 6 l0 -79 -30 -7 c-17 -4
-53 -4 -80 0 l-50 7 0 79 0 79 80 0 80 0 0 -79z m360 0 l0 -78 -31 -7 c-17 -3
-56 -6 -85 -6 l-54 0 0 85 0 85 85 0 85 0 0 -79z m-9372 -285 c-2 -2 -40 0
-85 2 l-83 4 1 82 c1 62 3 73 9 46 l7 -35 2 32 1 31 73 9 72 8 3 -89 c1 -49 1
-89 0 -90z m699 39 c-8 -7 -29 -16 -48 -19 -19 -3 -51 -8 -72 -11 l-37 -6 2
81 c0 44 4 80 7 81 3 0 37 3 76 5 38 3 72 8 75 11 3 3 6 -25 8 -61 2 -47 -1
-71 -11 -81z m7053 139 c12 -3 14 -20 12 -89 l-3 -85 -80 0 -80 0 2 89 2 88
66 1 c36 0 73 -2 81 -4z m728 -130 l-3 -45 -83 -2 -82 -2 0 88 c0 51 4 87 10
87 6 0 10 -11 10 -25 0 -22 4 -25 40 -25 33 0 40 3 40 20 0 30 47 28 53 -2 5
-21 5 -21 5 2 0 14 1 30 3 35 5 17 10 -83 7 -131z m282 120 l75 1 3 -82 3 -83
-86 0 -85 0 0 93 c0 50 4 87 8 81 4 -8 35 -11 82 -10z m430 -74 l0 -90 -80 0
c-75 0 -80 1 -85 23 -5 17 -1 128 4 155 1 1 37 2 81 2 l80 0 0 -90z m-8830 -5
l0 -85 -85 0 -85 0 1 83 c1 56 4 74 9 57 8 -23 8 -24 9 -3 1 20 7 22 69 26 37
2 70 4 75 5 4 1 7 -36 7 -83z m927 48 c-3 -21 -3 -32 0 -25 3 8 26 12 64 12
52 0 59 2 59 20 0 11 5 20 10 20 13 0 13 -46 -1 -110 l-11 -50 -74 0 -74 0 0
60 c0 33 4 60 10 60 6 0 10 11 10 25 0 14 3 25 6 25 4 0 4 -17 1 -37z m873 -3
c0 -21 -3 -58 -6 -84 l-7 -46 -78 0 -79 0 0 79 0 80 33 4 c17 2 56 4 85 4 l52
0 0 -37z m5850 9 c0 -12 7 -19 20 -19 15 0 20 7 20 25 0 22 4 25 35 25 l35 0
0 -85 0 -85 -85 0 -85 0 0 78 c0 43 2 81 5 84 13 13 55 -5 55 -23z m1534 -11
c3 -17 6 -52 6 -79 l0 -49 -85 0 -85 0 0 83 0 82 79 -3 79 -3 6 -31z m-9901
-50 c3 -46 5 -84 4 -85 -1 -1 -30 1 -64 4 -56 5 -62 8 -66 32 -3 14 -1 28 4
29 5 2 9 21 9 43 0 32 3 39 20 39 11 0 20 5 20 10 0 6 15 10 34 10 l33 0 6
-82z m2133 -63 c-28 -28 -46 -18 -46 25 0 33 3 40 19 40 11 0 22 -8 24 -17 3
-10 6 9 8 42 l3 60 3 -68 c3 -50 0 -71 -11 -82z m5634 65 l0 -80 -80 0 -80 0
0 70 c0 63 2 70 20 70 11 0 20 5 20 10 0 6 27 10 60 10 l60 0 0 -80z m-3489
44 c45 -8 105 -24 133 -35 59 -22 59 -22 51 -9 -3 6 0 17 8 25 13 12 17 12 30
-3 18 -21 12 -43 -11 -36 -9 3 5 -7 31 -21 26 -14 53 -23 59 -19 6 4 8 3 5 -3
-4 -6 11 -22 33 -37 48 -31 132 -131 182 -216 l37 -62 15 35 c55 132 237 290
403 350 89 32 220 50 311 44 77 -6 212 -50 305 -99 76 -40 250 -205 292 -277
33 -55 37 -58 57 -37 20 19 108 31 108 14 0 -9 3 -9 10 2 5 8 10 10 10 3 0 -6
31 -16 73 -23 94 -16 209 -54 255 -85 20 -14 40 -25 43 -25 13 0 154 -151 187
-200 43 -65 88 -157 97 -200 18 -91 25 -108 49 -114 34 -8 163 -97 210 -143
51 -51 120 -169 140 -243 9 -33 20 -60 24 -60 4 0 7 -38 7 -85 l0 -84 54 -43
c60 -48 162 -162 186 -207 75 -145 89 -292 46 -467 l-18 -70 55 -54 c73 -72
125 -155 156 -248 53 -163 54 -260 4 -405 l-20 -59 36 -79 c96 -209 86 -474
-24 -635 -45 -65 -154 -174 -174 -174 -14 0 -16 -7 -9 -52 4 -29 7 -101 6
-160 -2 -90 0 -108 12 -108 12 0 15 -10 13 -42 -2 -33 -8 -46 -27 -56 -13 -7
-26 -10 -29 -8 -2 3 -27 -26 -54 -65 -65 -92 -110 -136 -186 -180 l-63 -37 -3
-78 c-5 -98 -18 -149 -64 -242 -86 -176 -269 -329 -415 -347 l-52 -7 -18 -58
c-10 -32 -28 -71 -40 -88 -81 -109 -103 -134 -155 -173 -86 -64 -92 -73 -94
-143 l-1 -61 -7 50 c-4 28 -8 43 -10 35 -1 -8 -2 -18 -1 -22 0 -3 -14 -2 -32
3 -17 5 -33 9 -35 9 -2 0 0 5 3 10 7 11 -6 13 -29 4 -9 -3 -13 -10 -10 -15 3
-5 -2 -9 -10 -9 -9 0 -16 3 -16 8 0 4 -39 7 -88 8 -48 0 -99 4 -114 7 -21 6
-28 4 -28 -7 0 -8 -15 -34 -34 -59 -32 -42 -32 -44 -10 -39 13 2 21 8 18 13
-3 5 2 6 10 3 9 -3 16 -10 16 -15 0 -5 10 -9 23 -10 21 0 21 -1 2 -8 -11 -4
-38 -6 -61 -3 -38 4 -45 0 -105 -53 -124 -111 -297 -189 -445 -202 -41 -3 -74
-10 -74 -16 0 -6 -5 -6 -12 1 -7 5 -39 13 -70 16 -71 9 -199 62 -281 118 -117
79 -234 207 -283 311 -19 39 -34 48 -34 20 0 -74 -182 -267 -329 -350 -227
-129 -425 -137 -656 -24 -114 56 -200 128 -285 240 -39 52 -59 70 -70 65 -8
-4 -58 -9 -111 -12 l-97 -4 -106 51 c-81 39 -120 65 -164 109 -62 62 -138 181
-157 246 -12 39 -14 41 -74 53 -66 14 -145 53 -231 117 -64 48 -77 61 -129
138 -66 97 -103 199 -110 306 l-6 93 -50 27 c-61 33 -140 113 -207 212 -28 41
-54 77 -57 80 -3 3 -7 10 -8 16 -31 169 -35 211 -25 278 5 39 13 78 16 87 5
11 -5 24 -34 43 -43 28 -149 156 -179 215 -50 99 -66 172 -66 301 0 95 5 139
19 185 21 66 51 131 71 155 11 12 9 28 -12 90 -52 153 -41 324 29 464 29 58
125 196 137 196 3 1 18 11 33 23 l28 23 -21 53 c-17 47 -27 92 -43 211 -4 28
14 120 33 165 61 146 154 267 247 317 l49 27 6 108 c8 132 12 149 62 242 59
108 150 201 245 248 42 21 79 39 81 40 1 1 9 33 17 72 7 39 21 90 32 113 23
54 128 202 173 246 112 110 297 182 465 182 45 0 84 -4 86 -10 2 -5 14 -11 27
-12 21 -3 30 7 60 62 21 38 65 94 106 134 68 66 205 157 248 163 12 2 24 7 27
12 3 4 21 11 40 16 19 4 60 13 90 20 76 18 143 18 241 -1z m-2274 -66 c-3 -8
-6 -5 -6 6 -1 11 2 17 5 13 3 -3 4 -12 1 -19z m333 -160 l0 -93 -85 3 -85 3 0
59 0 58 80 -5 80 -6 0 37 c0 20 2 36 5 36 3 0 5 -42 5 -92z m-1800 20 c0 -108
0 -108 -91 -108 l-79 0 0 85 0 85 85 0 85 0 0 -62z m7399 25 c6 -21 11 -60 11
-86 l0 -49 -67 8 c-38 3 -69 11 -71 15 -2 5 -10 9 -18 9 -10 0 -14 14 -14 50
0 47 1 50 19 40 31 -16 51 -12 51 10 0 14 -7 20 -22 22 -13 0 -3 4 22 8 79 12
78 13 89 -27z m723 -15 c3 -69 1 -108 -5 -114 -2 -3 -41 -2 -86 2 l-81 7 0 34
c0 37 19 63 44 63 9 0 16 7 16 15 0 10 11 15 33 16 28 2 29 2 7 7 l-25 5 25 8
c62 18 70 13 72 -43z m358 -33 l0 -85 -91 0 -92 0 7 53 c3 28 6 62 6 75 0 16
6 22 23 23 21 1 21 1 -3 9 -17 5 3 8 63 9 l87 1 0 -85z m298 79 l52 -7 0 -80
0 -80 -46 7 c-26 3 -64 6 -85 6 l-39 0 0 74 c0 90 5 93 118 80z m412 -73 l0
-78 -31 -7 c-17 -3 -56 -6 -85 -6 l-54 0 0 55 c0 48 2 55 20 55 13 0 20 7 20
20 0 15 7 20 25 20 14 0 25 5 25 10 0 6 18 10 40 10 l40 0 0 -79z m-8837 35
c3 -19 3 -52 0 -75 l-6 -41 -78 0 -79 0 0 69 0 70 43 4 c114 10 114 10 120
-27z m357 -33 c0 -50 -3 -63 -16 -63 -8 0 -13 -3 -11 -7 3 -5 -14 -9 -36 -11
-23 -1 -55 -3 -72 -5 -29 -2 -30 -1 -33 47 -4 57 4 96 18 96 6 0 10 -9 10 -20
0 -11 5 -20 10 -20 6 0 10 11 10 23 0 22 4 24 60 24 l60 0 0 -64z m324 52 c-4
-10 0 -15 15 -15 19 0 21 -6 21 -59 l0 -58 -52 -7 c-29 -3 -68 -6 -85 -6 l-33
0 0 69 c0 67 0 68 25 63 18 -3 25 0 25 12 0 12 10 16 45 16 35 0 43 -3 39 -15z
m6016 -60 l0 -75 -30 0 c-16 0 -30 5 -30 10 0 6 -9 10 -20 10 -11 0 -20 -4
-20 -10 0 -5 -13 -10 -30 -10 -16 0 -30 5 -30 10 0 6 9 10 20 10 13 0 20 7 20
20 0 13 7 20 19 20 11 0 22 6 25 13 5 10 7 10 12 0 3 -7 14 -13 24 -13 10 0
21 -6 23 -12 3 -7 6 13 6 45 1 31 3 57 6 57 3 0 5 -34 5 -75z m702 8 l-4 -63
-41 0 c-23 0 -59 -3 -79 -6 l-38 -7 0 43 c0 28 7 51 23 71 20 26 27 28 82 26
l60 -2 -3 -62z m-6320 -9 c1 -36 0 -70 -3 -75 -3 -6 -44 -9 -90 -7 l-84 3 -3
33 c-3 27 0 32 17 32 12 0 21 5 21 10 0 6 9 10 20 10 16 0 20 7 20 30 0 29 1
30 49 30 l49 0 4 -66z m-1792 -13 c0 -69 -3 -71 -91 -71 l-79 0 0 45 0 45 60
0 c33 0 60 4 60 10 0 6 11 10 25 10 22 0 25 -4 25 -39z m-180 -168 c0 -81 -9
-100 -24 -48 -3 13 -4 11 -2 -6 2 -24 0 -26 -41 -27 l-43 0 0 64 c0 63 0 64
-27 65 -26 1 -26 2 7 11 29 8 92 22 123 27 4 0 7 -38 7 -86z m360 3 c0 -47 -3
-86 -7 -88 -5 -3 -42 -2 -83 1 l-75 6 -3 72 c-3 82 -6 80 93 86 28 2 56 4 63
5 9 2 12 -21 12 -82z m356 23 c-3 -34 -6 -75 -6 -90 0 -28 -2 -29 -49 -29 -27
0 -63 3 -80 6 l-31 7 0 78 0 78 78 4 c42 1 81 4 86 5 5 1 6 -25 2 -59z m354
-28 l0 -91 -34 0 c-18 0 -54 3 -80 6 -40 6 -46 10 -46 30 0 13 4 24 10 24 6 0
7 22 4 58 l-6 57 76 3 76 3 0 -90z m7770 29 c0 -50 -3 -60 -17 -61 -17 -1 -17
-2 0 -6 19 -5 24 -43 5 -44 -48 -3 -144 4 -151 10 -5 5 -5 25 -2 45 l7 36 64
0 c59 0 64 2 65 23 1 21 1 21 9 -3 7 -21 8 -19 9 18 2 65 11 50 11 -18z m646
50 l64 0 0 -85 0 -85 -79 0 c-91 0 -91 0 -91 90 0 70 7 93 27 86 8 -3 44 -6
79 -6z m-8146 -10 c0 -5 -20 -10 -45 -10 -25 0 -45 5 -45 10 0 6 20 10 45 10
25 0 45 -4 45 -10z m441 -12 c0 -13 3 -51 5 -85 l5 -63 -30 0 c-17 0 -31 4
-31 9 0 5 -22 7 -48 6 l-49 -4 10 43 c7 30 18 47 38 59 17 9 29 24 29 37 0 16
6 20 35 20 29 0 35 -4 36 -22z m289 13 c-62 -6 -65 -7 -71 -36 -7 -30 -7 -30
-8 6 l-1 36 73 0 72 0 -65 -6z m1364 0 c6 -9 -64 -21 -125 -21 -21 0 -40 4
-44 10 -3 5 26 11 72 13 43 1 81 4 85 5 4 1 9 -2 12 -7z m5760 -7 c9 -23 7
-127 -3 -142 -5 -9 -29 -12 -82 -10 l-74 3 -3 83 -3 82 80 0 c63 0 80 -3 85
-16z m697 11 c13 -4 18 -13 15 -23 -3 -9 -6 -45 -7 -80 l-2 -63 -76 3 -76 3 0
75 c0 41 1 78 2 81 3 8 120 11 144 4z m-7751 -55 c-6 -37 -8 -40 -9 -13 -1 29
8 68 14 61 1 -2 -1 -23 -5 -48z m4220 36 c8 -2 -20 -4 -62 -5 -43 0 -78 3 -78
7 0 7 103 6 140 -2z m1753 -127 c-4 -4 -6 13 -3 39 l5 47 3 -39 c2 -21 0 -42
-5 -47z m233 41 c34 0 33 -36 -1 -42 -16 -3 -25 -1 -25 7 0 7 -2 25 -4 41 -2
16 -1 21 1 12 3 -11 14 -18 29 -18z m-6349 -27 c-3 -10 -5 -2 -5 17 0 19 2 27
5 18 2 -10 2 -26 0 -35z m6093 2 c0 -18 -5 -25 -20 -25 -15 0 -20 7 -20 25 0
18 5 25 20 25 15 0 20 -7 20 -25z m-80 -9 c0 -2 -11 -6 -25 -8 -14 -3 -25 -1
-25 3 0 5 11 9 25 9 14 0 25 -2 25 -4z m-7478 -121 c-3 -76 -5 -85 -23 -85
-10 0 -19 5 -19 10 0 6 -18 10 -40 10 -22 0 -40 5 -40 10 0 6 9 10 20 10 18 0
20 7 20 59 0 54 2 60 23 64 64 12 62 15 59 -78z m358 0 l0 -81 -80 -1 c-56 -2
-80 1 -80 10 -1 7 -2 44 -3 83 l-2 71 82 -1 83 -1 0 -80z m360 0 l0 -85 -85 0
-85 0 0 60 c0 57 1 60 25 60 20 0 25 5 25 25 0 24 3 25 60 25 l60 0 0 -85z
m705 75 c-24 -6 -26 -8 -7 -9 19 -1 22 -6 22 -45 0 -24 3 -58 6 -75 l7 -31
-67 0 -66 0 0 60 c0 53 2 60 20 60 13 0 20 7 20 19 0 20 20 28 70 28 22 1 22
0 -5 -7z m6703 -77 l-2 -88 -3 80 c-3 47 -9 82 -16 87 -8 5 -6 8 6 8 15 0 17
-10 15 -87z m362 2 l0 -85 -85 0 -85 0 0 60 c0 32 5 71 12 85 11 23 16 25 85
25 l73 0 0 -85z m360 0 l0 -85 -85 0 -85 0 0 83 0 83 85 2 85 1 0 -84z m350 1
l0 -86 -85 0 -85 0 0 83 0 82 85 3 85 4 0 -86z m-1228 10 c3 -14 1 -31 -3 -38
-6 -8 -9 1 -9 25 0 42 6 48 12 13z m-6695 -78 c-2 -13 -4 -3 -4 22 0 25 2 35
4 23 2 -13 2 -33 0 -45z m-360 -10 c-3 -7 -5 -2 -5 12 0 14 2 19 5 13 2 -7 2
-19 0 -25z m7083 12 c0 -5 -9 -10 -20 -10 -11 0 -20 5 -20 10 0 6 9 10 20 10
11 0 20 -4 20 -10z m-7460 -121 l0 -79 -85 0 -85 0 0 66 c0 45 5 70 15 80 8 9
15 11 15 5 0 -6 18 -11 40 -11 22 0 40 4 40 9 0 10 39 20 53 13 4 -2 7 -39 7
-83z m720 0 l0 -79 -85 0 -85 0 2 73 c1 66 2 68 8 27 4 -25 8 -35 8 -22 1 12
9 22 17 22 8 0 15 9 15 20 0 18 7 20 58 21 31 1 48 4 38 6 -15 4 -16 7 -5 13
24 15 29 0 29 -81z m8102 6 l3 -85 -71 0 c-39 0 -73 2 -75 4 -2 2 -2 34 -1 70
3 53 7 66 20 67 10 0 33 6 52 13 67 26 68 25 72 -69z m-9182 64 c0 -5 -4 -7
-10 -4 -5 3 -10 1 -10 -4 0 -6 7 -11 15 -11 12 0 15 -14 15 -65 l0 -66 -82 3
-83 3 -3 50 c-2 36 0 46 8 35 7 -12 10 -7 10 18 0 28 3 31 18 24 20 -10 82 4
82 18 0 6 9 10 20 10 11 0 20 -5 20 -11z m8120 -75 l0 -74 -32 1 c-30 1 -31 2
-8 8 29 8 42 51 16 51 -20 0 -20 7 0 27 10 10 14 27 12 44 -3 15 -1 26 4 23 4
-3 8 -39 8 -80z m720 4 l0 -78 -85 0 -85 0 0 78 0 77 85 1 85 0 0 -78z m-352
36 c-3 -14 -5 -12 -10 9 -3 19 -2 25 4 19 6 -6 8 -18 6 -28z m-127 -34 c10 0
19 5 19 10 0 6 18 10 40 10 42 0 44 -3 40 -52 -2 -33 17 -38 23 -5 3 16 5 13
6 -10 l1 -33 -85 0 -85 0 0 44 c0 24 3 53 7 63 7 16 8 16 11 -4 2 -15 10 -23
23 -23z m-7656 -27 l-3 -48 -76 -3 c-42 -2 -76 1 -76 6 0 5 3 24 6 41 l7 31
68 0 c39 0 69 4 69 10 0 6 2 10 4 10 2 0 2 -21 1 -47z m6515 8 c0 -39 -1 -40
-42 -46 -70 -10 -103 -2 -105 26 l-2 24 8 -25 c7 -23 8 -21 15 18 l8 42 59 0
59 0 0 -39z m17 -33 c-3 -7 -5 -2 -5 12 0 14 2 19 5 13 2 -7 2 -19 0 -25z
m-5922 -26 c-3 -3 -11 0 -18 7 -9 10 -8 11 6 5 10 -3 15 -9 12 -12z m58 11
c-7 -2 -19 -2 -25 0 -7 3 -2 5 12 5 14 0 19 -2 13 -5z m-840 -44 c2 -2 2 -39
-1 -81 l-4 -78 -79 0 -79 0 0 86 0 87 80 -5 c44 -3 81 -7 83 -9z m8127 -76 l0
-83 -80 0 -80 0 0 85 0 85 80 -3 80 -2 0 -82z m557 -5 c-2 -18 -4 -4 -4 32 0
36 2 50 4 33 2 -18 2 -48 0 -65z m-9154 40 c4 -10 8 -9 17 2 9 11 13 12 17 3
2 -8 22 -13 44 -13 l39 0 0 -55 0 -56 -82 3 -83 3 -3 43 c-2 33 0 42 12 42 9
0 16 9 16 20 0 22 15 27 23 8z m8241 -4 c3 -9 6 -36 6 -60 l0 -44 -45 0 -45 0
0 39 c0 22 -5 41 -12 43 -9 3 -8 9 2 21 20 22 86 23 94 1z m636 -4 c0 -13 7
-20 20 -20 13 0 20 -7 20 -20 0 -13 7 -20 20 -20 15 0 20 -7 20 -25 0 -25 -1
-25 -85 -25 l-85 0 0 65 0 65 45 0 c38 0 45 -3 45 -20z m-8120 -50 c0 -5 18
-10 40 -10 36 0 40 -2 40 -25 0 -25 -1 -25 -80 -25 -74 0 -80 2 -80 20 0 12 6
27 13 35 14 16 67 20 67 5z m-1562 -53 c18 -1 32 -5 32 -9 0 -8 -119 -2 -128
6 -3 3 7 6 21 6 15 0 27 6 27 13 0 9 2 9 8 -1 5 -7 23 -14 40 -15z m8935 -4
c-7 -2 -21 -2 -30 0 -10 3 -4 5 12 5 17 0 24 -2 18 -5z m-8193 -113 l0 -91
-77 3 -78 3 -3 49 c-5 84 1 96 53 96 25 0 45 -4 45 -10 0 -5 11 -10 25 -10 20
0 25 5 25 25 0 14 2 25 5 25 3 0 5 -41 5 -90z m360 -1 l0 -90 -80 2 c-44 1
-82 5 -85 9 -2 3 -1 33 3 66 l7 59 6 -45 6 -45 1 43 c2 35 5 42 22 42 13 0 20
7 20 19 0 20 17 27 73 30 l27 1 0 -91z m8480 1 l0 -91 -82 3 -83 3 -3 35 c-2
19 -1 58 3 86 l6 51 80 2 79 2 0 -91z m-7905 33 c8 -7 21 -13 29 -13 9 0 16
-4 16 -10 0 -5 18 -10 40 -10 33 0 40 4 44 23 3 12 7 31 9 42 3 11 5 -17 6
-61 1 -95 3 -94 -100 -94 l-69 0 2 88 c1 48 3 78 6 68 2 -11 10 -26 17 -33z
m7421 -33 c13 0 24 5 24 10 0 6 20 10 45 10 l45 0 -5 33 c-4 28 -4 29 4 7 5
-14 9 -53 10 -86 l1 -62 -77 2 -78 1 -1 85 c-1 47 1 66 3 43 4 -38 7 -43 29
-43z m704 30 c0 -5 18 -10 39 -10 31 0 41 -4 46 -20 4 -11 15 -20 26 -20 17 0
20 -6 17 -32 l-3 -33 -70 2 c-67 1 -70 2 -77 30 -9 32 0 93 13 93 5 0 9 -4 9
-10z m-8480 -20 c0 -5 9 -10 20 -10 11 0 20 -4 20 -10 0 -5 9 -10 20 -10 13 0
20 -7 20 -20 0 -13 7 -20 19 -20 10 0 22 -7 25 -16 5 -13 -4 -15 -67 -13 -39
1 -75 7 -79 13 -4 6 -8 30 -8 54 0 31 4 42 15 42 8 0 15 -4 15 -10z m6920 -30
c0 -17 7 -20 40 -20 32 0 40 -4 40 -19 0 -21 -35 -31 -111 -31 -46 0 -49 2
-49 25 0 18 5 25 20 25 13 0 20 7 20 20 0 13 7 20 20 20 13 0 20 -7 20 -20z
m-7850 -165 c0 -79 -7 -90 -47 -72 -19 8 -23 18 -23 54 0 36 3 43 20 43 18 0
26 20 21 52 0 4 6 5 14 2 11 -5 15 -24 15 -79z m8120 -1 c0 -75 -12 -89 -70
-79 l-40 7 0 49 c0 42 3 49 20 49 13 0 20 7 20 20 0 15 7 20 25 20 14 0 25 6
25 13 0 8 4 7 10 -3 5 -8 10 -43 10 -76z m-7590 -4 l0 -80 -30 0 c-16 0 -30 5
-30 10 0 6 -15 11 -32 12 l-33 1 33 4 c30 4 32 7 32 44 0 32 3 39 20 39 13 0
20 7 20 18 0 17 8 32 17 32 2 0 3 -36 3 -80z m8130 5 l0 -75 -62 0 c-80 0 -96
9 -80 45 7 14 12 41 12 60 0 33 2 34 43 38 97 8 87 16 87 -68z m350 -5 l0 -80
-60 0 c-33 0 -60 4 -60 10 0 6 -12 11 -27 11 l-28 2 28 4 c34 5 38 40 5 45
-19 2 -23 10 -25 43 0 22 1 30 4 18 6 -31 63 -34 63 -4 0 15 8 21 33 24 72 9
67 15 67 -73z m-9370 0 c0 -39 -4 -70 -10 -70 -5 0 -7 15 -5 33 l5 32 -10 -32
c-7 -23 -17 -33 -30 -33 -11 0 -20 5 -20 10 0 6 8 10 19 10 19 0 31 34 31 91
0 16 5 29 10 29 6 0 10 -30 10 -70z m1250 18 c0 -96 -2 -98 -86 -98 -40 0 -76
4 -79 10 -3 5 -3 25 1 45 4 25 11 35 25 35 14 0 19 7 19 30 l0 30 60 0 60 0 0
-52z m8480 -17 l0 -68 -57 -6 c-37 -4 -60 -2 -64 5 -4 6 -16 8 -28 5 -12 -3
-21 -1 -21 4 0 5 11 9 25 9 18 0 25 5 25 20 0 11 -4 20 -10 20 -5 0 -10 9 -10
20 0 13 7 20 19 20 11 0 22 6 25 13 5 10 7 10 12 0 10 -21 44 -16 44 7 0 13 7
20 20 20 18 0 20 -7 20 -69z m-1403 7 c-3 -8 -6 -5 -6 6 -1 11 2 17 5 13 3 -3
4 -12 1 -19z m-7789 -75 c3 -10 -15 -13 -70 -12 -63 1 -67 2 -31 8 24 4 46 11
50 15 11 10 46 3 51 -11z m-285 0 c-7 -2 -21 -2 -30 0 -10 3 -4 5 12 5 17 0
24 -2 18 -5z m462 -109 l0 -80 -63 -2 c-102 -4 -102 -4 -102 89 l0 80 83 -3
82 -3 0 -81z m286 76 l69 0 0 -79 0 -79 -47 -4 c-27 -1 -63 -2 -80 0 l-33 3 0
62 c0 34 -3 73 -7 86 -5 20 -3 23 11 18 10 -4 49 -7 87 -7z m8189 -12 c-1 -20
-2 -20 -10 -7 -9 15 -13 15 -57 0 -27 -9 -49 -19 -51 -23 -2 -5 -10 -8 -17 -8
-7 0 -15 -6 -18 -12 -2 -7 -4 6 -4 30 l0 42 78 0 c75 0 79 -1 79 -22z m328 12
l32 0 0 -80 0 -80 -80 0 -80 0 0 33 c-1 17 -3 56 -6 86 l-6 54 54 -6 c29 -4
68 -7 86 -7z m-7738 -9 c0 -11 -130 -24 -153 -15 -39 14 -12 24 68 24 47 0 85
-4 85 -9z m8123 2 c-9 -3 -13 -28 -13 -73 l0 -68 -37 -7 c-21 -3 -52 -5 -70
-3 l-32 2 -3 78 -3 78 85 -1 c47 0 79 -3 73 -6z m-2456 -65 c-3 -7 -5 -2 -5
12 0 14 2 19 5 13 2 -7 2 -19 0 -25z m1213 -30 l0 -53 -63 -1 c-73 -1 -109 20
-52 30 19 3 51 9 70 12 31 5 35 10 35 35 0 16 2 29 5 29 3 0 5 -24 5 -52z
m-6878 -33 c3 -14 1 -25 -3 -25 -5 0 -9 11 -9 25 0 14 2 25 4 25 2 0 6 -11 8
-25z m-1602 -45 c0 -5 -21 -9 -47 -8 l-48 1 45 7 c25 4 46 8 48 8 1 1 2 -2 2
-8z m350 -80 l0 -90 -40 0 -40 0 0 40 c0 28 -4 40 -14 40 -9 0 -15 15 -18 45
l-3 44 40 4 c22 2 48 4 58 5 15 2 17 -8 17 -88z m593 73 c-7 -2 -21 -2 -30 0
-10 3 -4 5 12 5 17 0 24 -2 18 -5z m117 -78 l0 -85 -35 0 c-19 0 -35 5 -35 10
0 6 -9 10 -20 10 -11 0 -20 -4 -20 -10 0 -5 -11 -10 -25 -10 -23 0 -25 4 -24
43 0 23 3 36 6 30 2 -7 13 -13 24 -13 10 0 19 -4 19 -10 0 -5 9 -10 20 -10 11
0 20 6 20 14 0 7 11 16 24 18 20 4 26 0 28 -16 2 -12 4 5 4 37 0 31 -4 57 -9
57 -4 0 -5 5 -2 10 17 27 25 2 25 -75z m7123 78 c-7 -2 -19 -2 -25 0 -7 3 -2
5 12 5 14 0 19 -2 13 -5z m1230 0 c-15 -3 -23 -12 -23 -24 0 -17 7 -19 60 -19
53 0 60 2 60 20 0 13 7 20 20 20 18 0 20 -7 20 -80 l0 -80 -85 0 -85 0 0 85 0
85 28 -1 c23 -2 24 -2 5 -6z m-8767 -63 l64 0 0 -48 0 -48 -79 -1 -79 -2 -4
47 c-5 54 -2 66 19 58 8 -3 44 -6 79 -6z m8464 -55 l0 -45 -40 0 c-40 0 -40 0
-40 39 0 33 4 40 23 44 55 11 57 10 57 -38z m80 -5 c0 -33 -3 -40 -20 -40 -17
0 -20 7 -20 40 0 33 3 40 20 40 17 0 20 -7 20 -40z m-7923 -32 c-3 -7 -5 -2
-5 12 0 14 2 19 5 13 2 -7 2 -19 0 -25z m6936 21 c62 15 67 14 67 -9 0 -19 -5
-21 -62 -18 -54 3 -63 6 -66 23 -2 15 -1 17 6 6 8 -11 18 -12 55 -2z m402 1
c-63 -17 -115 -19 -115 -4 0 11 16 14 73 13 56 -1 65 -3 42 -9z m-1102 -27
c-7 -2 -19 -2 -25 0 -7 3 -2 5 12 5 14 0 19 -2 13 -5z m-7325 -120 l-3 -68
-55 1 c-88 2 -111 7 -105 22 3 8 5 21 6 30 0 11 2 12 6 5 8 -20 23 -15 23 7 0
15 7 20 25 20 20 0 27 6 32 30 4 20 11 30 24 30 10 0 21 5 25 11 14 23 25 -21
22 -88z m711 -20 l1 -43 -73 0 -74 0 5 30 c3 24 9 30 28 30 15 0 24 6 24 16 0
22 25 44 49 44 15 0 21 7 22 23 2 34 18 -52 18 -100z m-378 80 l1 -28 8 30 c6
22 8 9 9 -47 l1 -78 -80 0 -80 0 1 73 c1 58 3 65 9 37 5 -23 8 -27 9 -12 1 18
7 22 31 22 17 0 30 4 30 9 0 8 10 12 53 20 4 0 8 -11 8 -26z m8859 -48 l0 -76
-82 3 c-79 3 -83 4 -86 27 -2 12 -1 35 3 49 5 20 8 23 16 11 5 -8 9 -9 9 -2 0
8 20 11 63 10 61 -2 62 -1 65 26 6 51 12 27 12 -48z m-9647 14 c16 -9 22 -9
25 0 2 6 19 11 38 11 l34 0 0 -50 0 -50 -78 0 -78 0 -2 31 c-5 64 14 82 61 58z
m8036 -37 l-2 -48 -36 6 -36 5 33 3 c30 3 32 6 32 43 0 21 2 39 5 39 4 0 5
-22 4 -48z m1258 16 c-3 -7 -5 -2 -5 12 0 14 2 19 5 13 2 -7 2 -19 0 -25z
m-92 -8 c55 0 65 -3 70 -20 3 -11 11 -20 16 -20 5 0 9 -4 9 -10 0 -6 -29 -8
-75 -6 -48 2 -75 0 -75 -7 0 -6 -3 -7 -7 -3 -4 4 -8 25 -8 48 -1 23 1 36 3 30
2 -8 27 -12 67 -12z m655 -35 c7 16 9 17 9 3 1 -12 12 -18 44 -21 36 -3 34 -4
-15 -5 l-58 -2 2 43 1 42 5 -40 c3 -32 6 -36 12 -20z m-8840 16 c0 -11 -4 -23
-10 -26 -6 -4 -10 5 -10 19 0 14 5 26 10 26 6 0 10 -9 10 -19z m370 -32 c0 7
24 11 65 11 37 0 65 -4 65 -10 0 -5 -12 -10 -27 -10 -16 0 -52 -3 -80 -6 -46
-6 -53 -5 -53 11 0 14 3 15 15 5 10 -9 15 -9 15 -1z m6993 4 c-7 -2 -19 -2
-25 0 -7 3 -2 5 12 5 14 0 19 -2 13 -5z m687 -63 c0 -5 11 -10 25 -10 24 0 25
-3 25 -60 l0 -60 -39 0 c-21 0 -59 -3 -85 -6 -45 -7 -46 -6 -46 20 0 19 5 26
20 26 13 0 20 7 20 20 0 11 5 20 10 20 6 0 10 9 10 20 0 13 7 20 20 20 11 0
20 5 20 10 0 6 5 10 10 10 6 0 10 -4 10 -10z m-8440 -70 l0 -70 -75 4 c-42 2
-78 6 -81 9 -3 3 4 23 15 46 12 22 21 49 21 61 0 18 6 20 60 20 l60 0 0 -70z
m9160 40 c0 -13 7 -20 20 -20 17 0 20 -7 20 -45 l0 -45 -85 0 -85 0 0 65 0 65
65 0 c58 0 65 -2 65 -20z m-8920 -5 c0 -12 13 -15 60 -15 l60 0 0 -39 c0 -47
-14 -53 -107 -44 -63 6 -63 6 -63 37 0 51 11 76 31 76 11 0 19 -7 19 -15z
m8600 -55 l0 -40 -80 0 -80 0 0 30 c0 23 4 30 20 30 11 0 20 5 20 10 0 6 27
10 60 10 l60 0 0 -40z m-9018 -139 c-4 -79 -12 -86 -72 -72 -32 8 -33 9 -7 10
20 1 27 6 27 21 0 11 6 20 14 20 16 0 24 20 28 67 4 63 13 23 10 -46z m202 68
c-4 -8 1 -9 15 -4 36 11 119 -4 124 -23 3 -12 4 -11 3 3 -1 12 -11 22 -26 26
-23 6 -22 7 8 8 l32 1 0 -86 0 -86 -77 5 -78 4 -5 77 c-3 43 -3 80 -1 82 9 8
12 4 5 -7z m8996 -74 l0 -86 -82 3 -83 3 -3 32 c-2 18 4 43 12 55 l16 22 0
-22 c0 -14 6 -22 17 -22 25 0 63 40 63 66 0 17 7 24 28 27 15 2 28 5 30 6 1 0
2 -37 2 -84z m220 59 c0 -8 9 -14 20 -14 11 0 20 -4 20 -10 0 -5 18 -10 39
-10 39 0 40 0 47 -45 3 -25 4 -48 1 -51 -2 -3 -37 -8 -76 -11 -50 -4 -71 -3
-71 6 0 6 6 11 13 11 9 0 9 2 0 8 -17 11 -28 82 -13 82 8 0 11 11 8 29 -2 17
-1 28 4 25 4 -3 8 -12 8 -20z m-8708 -123 c-1 -3 -37 -6 -80 -8 l-78 -2 -2 29
c-1 17 2 30 8 30 5 0 11 -10 11 -22 l2 -23 4 23 c4 18 11 22 44 22 32 0 39 3
39 20 0 13 7 20 20 20 15 0 20 7 22 28 1 15 4 -4 7 -43 3 -38 5 -72 3 -74z
m-135 107 c-3 -8 -6 -5 -6 6 -1 11 2 17 5 13 3 -3 4 -12 1 -19z m8144 -58 c10
0 19 -4 19 -10 0 -5 9 -10 20 -10 11 0 20 -5 20 -11 0 -8 12 -10 35 -6 20 3
35 2 35 -4 0 -6 -4 -8 -9 -5 -5 4 -11 2 -13 -3 -1 -5 -36 -12 -75 -16 l-73 -7
0 40 c0 22 3 49 7 59 7 16 8 16 11 -4 2 -15 10 -23 23 -23z m-9074 -62 c-3 -8
-6 -5 -6 6 -1 11 2 17 5 13 3 -3 4 -12 1 -19z m213 13 c0 -5 12 -12 28 -14 22
-3 20 -4 -10 -6 -28 -1 -38 3 -38 14 0 8 5 15 10 15 6 0 10 -4 10 -9z m8763
-83 c4 -10 8 -9 16 2 14 21 18 13 26 -62 l7 -68 -86 0 c-51 0 -86 4 -86 10 0
6 4 10 9 10 5 0 16 16 23 36 9 26 20 37 40 41 19 4 28 12 28 24 0 21 16 26 23
7z m-8162 -68 c78 0 79 0 79 -25 0 -14 -3 -25 -7 -25 -5 -1 -43 -3 -85 -6
l-78 -6 1 54 c1 29 4 43 6 31 4 -22 9 -23 84 -23z m8899 0 c0 -22 5 -40 10
-40 6 0 10 -6 10 -13 0 -9 -24 -13 -85 -15 l-85 -1 0 34 c0 31 3 35 25 35 18
0 25 5 25 20 0 17 7 20 50 20 l50 0 0 -40z m-9180 -20 l0 -40 -52 2 c-36 1
-43 2 -20 5 24 3 32 9 32 24 0 20 19 48 33 49 4 0 7 -18 7 -40z m8720 30 c0
-5 18 -10 40 -10 22 0 40 5 40 10 0 6 9 10 20 10 17 0 20 -7 20 -40 l0 -40
-80 0 -80 0 0 40 c0 33 3 40 20 40 11 0 20 -4 20 -10z m-8139 -40 c10 0 19 -7
19 -15 0 -9 -9 -15 -25 -15 -22 0 -25 4 -24 33 1 17 3 24 6 15 2 -10 13 -18
24 -18z m92 -17 c-7 -2 -19 -2 -25 0 -7 3 -2 5 12 5 14 0 19 -2 13 -5z m8774
-5 c-22 -6 -42 -7 -47 -2 -5 5 12 10 38 10 l47 2 -38 -10z m-1143 -139 c14
-69 14 -69 -73 -69 -44 0 -83 5 -86 10 -3 6 -1 10 4 10 6 0 11 9 11 20 0 17 7
20 40 20 33 0 40 3 40 20 0 15 7 20 29 20 24 0 29 -5 35 -31z m356 6 c0 -14
-4 -25 -10 -25 -5 0 -10 11 -10 25 0 14 5 25 10 25 6 0 10 -11 10 -25z m575
-15 c-7 -43 -4 -46 58 -41 15 1 27 -3 27 -8 0 -6 -21 -11 -50 -11 -55 0 -57 4
-44 69 9 45 17 38 9 -9z m-604 -18 c43 -29 26 -42 -57 -42 -72 0 -74 1 -74 24
0 13 6 27 13 29 28 12 94 6 118 -11z m240 -4 l2 -23 4 23 c4 20 10 22 64 22
50 0 59 -3 59 -18 0 -10 5 -23 11 -29 8 -8 -12 -10 -73 -9 -83 1 -83 1 -86 29
-2 15 1 27 7 27 6 0 12 -10 12 -22z m-9158 -25 c-7 -2 -19 -2 -25 0 -7 3 -2 5
12 5 14 0 19 -2 13 -5z m8769 -80 c1 -21 1 -60 1 -88 l-1 -50 -81 -3 c-68 -2
-81 0 -81 13 0 8 6 15 14 15 14 0 26 42 26 91 0 27 3 29 40 29 29 0 40 4 40
15 0 8 9 15 20 15 16 0 20 -7 22 -37z m-352 -71 c0 -48 -21 -62 -75 -52 -39 7
-39 8 -7 9 25 1 32 5 32 21 0 13 7 20 20 20 13 0 20 7 20 20 0 11 2 20 5 20 3
0 5 -17 5 -38z m187 6 c-3 -7 -5 -2 -5 12 0 14 2 19 5 13 2 -7 2 -19 0 -25z
m523 -18 l0 -50 -80 0 -80 0 0 40 c0 33 3 40 20 40 11 0 20 -4 20 -10 0 -5 9
-10 20 -10 13 0 20 7 20 20 0 17 7 20 40 20 l40 0 0 -50z m228 7 c14 -3 50 -3
79 0 l53 6 0 -37 0 -36 -85 0 -85 0 1 58 c1 31 4 47 6 36 3 -14 14 -24 31 -27z
m-1075 -54 c-7 -2 -19 -2 -25 0 -7 3 -2 5 12 5 14 0 19 -2 13 -5z m312 -200
c0 -1 -16 2 -35 7 -32 7 -32 8 -7 9 26 1 27 3 29 64 l1 62 7 -70 c3 -38 6 -71
5 -72z m715 65 l0 -73 -85 3 -85 3 1 37 c1 20 5 48 9 62 l8 25 2 -25 c1 -14 4
-19 7 -12 3 8 26 12 64 12 52 0 59 2 59 20 0 11 5 20 10 20 6 0 10 -31 10 -72z
m-484 12 c13 0 24 -4 24 -10 0 -5 18 -10 40 -10 38 0 40 -2 40 -31 l0 -30 -70
2 -70 2 1 51 c0 28 3 45 6 39 2 -7 16 -13 29 -13z m-8256 -10 c0 -5 18 -10 40
-10 38 0 40 -2 40 -30 0 -28 -2 -30 -39 -30 -73 0 -101 10 -101 36 0 17 6 24
20 24 11 0 20 5 20 10 0 6 5 10 10 10 6 0 10 -4 10 -10z m8204 -141 c3 -17 6
-53 6 -80 l0 -49 -85 0 c-78 0 -85 2 -85 20 0 10 7 23 17 28 12 7 14 17 10 41
-6 26 -4 31 13 31 13 0 20 7 20 20 0 17 7 20 49 20 46 0 49 -1 55 -31z m676 1
c0 -5 9 -10 20 -10 18 0 20 -7 20 -59 l0 -60 -85 -3 -85 -3 1 55 c0 30 3 49 6
43 7 -18 71 -16 89 1 8 8 14 22 14 30 0 9 5 16 10 16 6 0 10 -4 10 -10z m263
-112 c20 -3 19 -4 -5 -9 l-28 -6 2 61 2 61 3 -52 c3 -44 7 -52 26 -55z m-1383
52 c0 -5 17 -10 39 -10 33 0 39 -3 43 -25 3 -13 3 -27 0 -30 -3 -3 -41 -5 -84
-5 l-78 0 0 40 0 40 40 0 c22 0 40 -4 40 -10z m800 -25 c0 -35 0 -35 -42 -34
-24 1 -33 4 -20 6 12 2 22 11 22 19 0 16 20 43 33 44 4 0 7 -16 7 -35z m-8380
-35 c19 -7 13 -8 -27 -8 -29 1 -53 5 -53 10 0 10 47 9 80 -2z m8250 -6 c0 -2
-7 -4 -15 -4 -8 0 -15 4 -15 10 0 5 7 7 15 4 8 -4 15 -8 15 -10z m162 -119
c-4 -25 -4 -25 66 -25 65 0 71 2 75 23 2 12 5 -2 6 -30 l1 -53 -78 0 c-43 0
-81 2 -83 4 -7 7 3 106 11 106 4 0 5 -11 2 -25z m-573 -35 c-2 -37 -7 -50 -18
-50 -12 0 -12 3 -3 12 7 7 12 29 12 50 0 21 2 38 5 38 4 0 5 -22 4 -50z m934
-30 c3 -11 1 -18 -4 -14 -5 3 -9 12 -9 20 0 20 7 17 13 -6z m-33 -165 l0 -65
-47 0 c-27 0 -65 3 -85 6 -34 6 -38 10 -38 35 0 24 4 29 25 29 18 0 25 5 25
20 0 17 7 20 40 20 22 0 40 5 40 10 0 6 9 10 20 10 18 0 20 -7 20 -65z m-360
-5 l0 -50 -78 0 c-43 0 -81 2 -83 4 -2 3 -3 25 -1 50 l4 46 79 0 79 0 0 -50z
m-712 -32 c-2 -10 -20 -11 -68 -7 l-65 6 63 1 c57 2 62 4 63 25 1 16 2 18 6 5
2 -10 3 -24 1 -30z m352 6 c0 -36 -1 -36 -31 -30 -17 3 -56 6 -85 6 -30 0 -54
3 -54 8 1 21 22 33 76 41 98 14 94 15 94 -25z m-9015 -14 c3 -5 2 -10 -4 -10
-5 0 -13 5 -16 10 -3 6 -2 10 4 10 5 0 13 -4 16 -10z m9762 -62 c-3 -7 -5 -2
-5 12 0 14 2 19 5 13 2 -7 2 -19 0 -25z m133 12 c0 -13 -7 -20 -20 -20 -13 0
-20 7 -20 20 0 13 7 20 20 20 13 0 20 -7 20 -20z m-340 -75 l0 -85 -67 5 c-38
3 -74 6 -80 7 -9 1 -13 21 -12 67 1 55 3 60 9 31 4 -19 8 -29 9 -22 0 6 10 12
21 12 13 0 20 7 20 20 0 17 7 20 39 20 25 0 41 5 45 15 12 31 16 12 16 -70z
m-723 3 c-3 -7 -5 -2 -5 12 0 14 2 19 5 13 2 -7 2 -19 0 -25z m-8337 -58 c0
-5 -4 -10 -10 -10 -5 0 -10 5 -10 10 0 6 5 10 10 10 6 0 10 -4 10 -10z m320 1
c0 -11 -25 -21 -56 -21 -15 0 -24 6 -24 15 0 11 11 15 40 15 22 0 40 -4 40 -9z
m8000 -1 c0 -5 -4 -10 -10 -10 -5 0 -10 5 -10 10 0 6 5 10 10 10 6 0 10 -4 10
-10z m240 -20 c0 -5 -5 -10 -11 -10 -5 0 -7 5 -4 10 3 6 8 10 11 10 2 0 4 -4
4 -10z m-8547 -7 c-18 -2 -48 -2 -65 0 -18 2 -4 4 32 4 36 0 50 -2 33 -4z
m8515 -103 c3 -68 0 -91 -10 -95 -7 -3 -47 -2 -88 2 -69 7 -75 10 -78 32 -2
14 0 21 7 17 5 -4 18 8 27 26 20 38 38 58 54 58 6 0 19 7 27 16 14 13 14 17 2
25 -10 6 -3 9 21 9 l35 0 3 -90z m-8666 -31 l-4 -59 -69 0 c-67 0 -69 1 -69
25 0 16 6 25 16 25 22 0 44 25 44 49 0 20 13 25 58 24 6 -1 13 11 13 26 l1 26
7 -29 c3 -15 4 -55 3 -87z m564 52 c3 -14 8 -20 12 -14 4 6 25 13 47 16 22 2
50 8 62 12 25 8 30 -11 24 -82 l-3 -43 -79 0 -79 0 1 88 c1 48 3 78 6 67 2
-11 6 -31 9 -44z m8814 -26 l0 -85 -75 0 c-41 0 -78 -1 -82 -2 -10 -4 -16 58
-9 88 4 15 14 24 26 24 11 0 20 5 20 10 0 6 9 10 20 10 11 0 20 6 20 14 0 14
20 21 63 25 15 1 17 -9 17 -84z m-360 -5 l0 -81 -82 3 c-93 3 -95 5 -83 84 l6
44 60 0 c46 0 59 3 59 15 0 8 9 15 20 15 18 0 20 -7 20 -80z m-8666 34 c3 -9
6 -38 6 -65 l0 -50 -77 3 -78 3 -3 63 -3 62 74 0 c59 0 76 -3 81 -16z m8846
-226 l0 -88 -62 0 c-108 0 -108 0 -108 89 0 43 2 80 5 82 2 3 41 5 85 5 l80
-1 0 -87z m-9017 55 c3 -14 2 -52 0 -85 l-6 -58 -58 0 c-31 0 -64 3 -73 6 -18
7 -22 44 -5 44 7 0 8 14 4 40 -6 36 -5 40 14 40 14 0 21 6 21 20 0 17 7 20 49
20 45 0 49 -2 54 -27z m705 -139 c-3 -3 -40 -2 -82 2 l-76 7 1 61 c1 33 4 51
6 39 6 -30 43 -32 43 -3 0 17 7 20 45 20 40 0 45 3 46 23 1 12 6 -15 12 -61 5
-45 7 -85 5 -88z m7961 44 l1 -48 -80 0 -80 0 0 65 0 65 64 0 c59 0 65 -2 69
-22 2 -13 5 -3 7 22 l2 45 9 -40 c4 -22 8 -61 8 -87z m-8309 27 l0 -76 -82 3
-83 3 2 47 c1 53 27 93 44 67 8 -12 11 -12 20 1 8 11 12 12 16 3 8 -21 43 -15
43 7 0 13 7 20 20 20 18 0 20 -7 20 -75z m7787 -37 c-2 -18 -4 -4 -4 32 0 36
2 50 4 33 2 -18 2 -48 0 -65z m93 -7 c0 -12 8 -21 23 -24 12 -2 -6 -5 -40 -6
-61 -1 -63 0 -63 24 0 23 4 25 40 25 33 0 40 -3 40 -19z m57 -13 c-3 -7 -5 -2
-5 12 0 14 2 19 5 13 2 -7 2 -19 0 -25z m-8657 2 c0 -5 -4 -10 -10 -10 -5 0
-10 5 -10 10 0 6 5 10 10 10 6 0 10 -4 10 -10z m896 -46 c-3 -9 -6 -44 -6 -79
l0 -63 -70 -4 c-53 -2 -69 0 -65 10 2 6 0 12 -4 12 -5 0 -12 -6 -14 -12 -3 -7
-6 8 -6 34 -1 50 6 78 20 78 5 0 6 -13 3 -30 -6 -27 -4 -30 20 -30 19 0 26 5
26 20 0 13 7 20 20 20 15 0 20 7 20 24 0 23 6 27 54 35 4 0 5 -6 2 -15z m-716
-69 c0 -43 -4 -75 -10 -75 -5 0 -10 5 -10 10 0 6 -9 10 -20 10 -18 0 -20 7
-20 59 0 63 -2 60 53 70 4 0 7 -33 7 -74z m352 48 c-3 -16 -7 -22 -10 -15 -4
13 4 42 11 42 2 0 2 -12 -1 -27z m713 -58 l-7 -75 -76 1 c-43 1 -69 3 -59 6 9
2 15 8 12 12 -2 5 7 6 20 3 21 -4 25 -1 25 22 0 19 5 26 20 26 17 0 20 7 20
39 0 33 4 40 23 43 12 2 24 3 26 1 2 -1 0 -36 -4 -78z m7595 10 l0 -75 -43 0
-43 0 4 68 c5 72 11 82 55 82 l27 0 0 -75z m360 -6 l0 -81 -31 6 c-17 3 -53 6
-80 6 -48 0 -49 1 -49 30 l0 30 60 0 60 0 0 45 c0 38 3 45 20 45 18 0 20 -7
20 -81z m356 44 c-3 -21 -6 -54 -6 -74 0 -35 -1 -37 -42 -42 -24 -3 -60 -9
-80 -13 l-38 -7 1 84 c1 46 4 74 6 62 6 -29 43 -32 43 -4 0 16 8 21 43 24 23
2 50 4 61 5 16 2 18 -3 12 -35z m-9739 -45 c-3 -7 -5 -2 -5 12 0 14 2 19 5 13
2 -7 2 -19 0 -25z m715 -28 c0 -11 1 -25 2 -32 1 -12 -51 -18 -101 -11 -18 3
-33 10 -33 15 0 6 16 7 40 3 38 -6 40 -6 40 19 0 21 5 26 25 26 18 0 25 -6 27
-20z m7808 -24 c0 -3 -4 -8 -10 -11 -5 -3 -10 -1 -10 4 0 6 5 11 10 11 6 0 10
-2 10 -4z m53 -23 c-7 -2 -21 -2 -30 0 -10 3 -4 5 12 5 17 0 24 -2 18 -5z
m-8033 -108 l0 -85 -86 0 -87 0 5 65 c8 89 17 96 141 103 l27 2 0 -85z m360 0
l0 -85 -85 0 -86 0 3 72 3 72 55 12 c30 6 67 12 83 13 l27 1 0 -85z m348 3
l-3 -83 -77 -3 -78 -3 0 71 c0 56 3 70 15 70 8 0 15 4 15 9 0 11 29 18 88 20
l44 1 -4 -82z m7587 -3 l0 -80 -78 -3 -78 -3 3 73 3 73 35 2 c19 1 51 2 70 3
l35 3 -35 7 -35 8 40 -1 40 -2 0 -80z m723 8 l-3 -78 -82 -3 -83 -3 0 73 c0
72 13 85 23 23 4 -21 5 -17 4 11 -2 41 -2 41 27 33 17 -5 32 -5 35 0 6 9 34
18 64 20 16 1 18 -7 15 -76z m-504 55 c-5 -8 0 -9 17 -3 36 11 120 11 128 0
12 -15 1 -131 -13 -133 -6 0 -37 -4 -68 -8 -76 -9 -86 0 -81 73 5 63 9 83 18
83 4 0 3 -5 -1 -12z m851 -57 c0 -38 -2 -72 -5 -75 -3 -2 -38 -7 -78 -10 l-72
-5 0 62 c0 44 3 58 10 47 8 -12 10 -11 10 6 0 18 9 22 68 31 37 5 67 11 67 11
0 1 0 -29 0 -67z m-8385 -71 c37 0 60 5 63 13 3 7 6 5 6 -5 1 -16 -9 -18 -74
-18 -66 0 -74 2 -68 17 4 11 8 12 11 5 2 -8 26 -12 62 -12z m-1427 -7 c-13 -2
-35 -2 -50 0 -16 2 -5 4 22 4 28 0 40 -2 28 -4z m64 1 c-3 -3 -12 -4 -19 -1
-8 3 -5 6 6 6 11 1 17 -2 13 -5z m8719 -61 c18 -18 24 -16 24 7 0 18 7 20 59
20 l60 0 3 -85 3 -86 -85 3 -85 3 -2 90 c-1 50 1 83 4 75 3 -8 12 -20 19 -27z
m-7816 10 c3 -2 6 -38 8 -80 l4 -75 -78 4 -79 4 -3 83 -3 83 73 -7 c40 -4 75
-9 78 -12z m8320 -83 l0 -70 -80 0 -80 0 0 45 c0 38 3 45 20 45 13 0 20 7 20
19 0 16 8 21 43 24 23 2 50 4 60 5 15 2 17 -7 17 -68z m266 -20 c57 0 64 -2
64 -20 0 -18 -7 -20 -54 -20 -30 0 -61 -3 -70 -6 -14 -5 -16 4 -14 62 1 49 3
57 5 27 l4 -43 65 0z m-8988 40 l42 0 0 -45 0 -45 -60 0 -60 0 0 62 c0 59 1
60 18 45 11 -10 36 -17 60 -17z m-94 -49 c-4 -23 -9 -40 -11 -37 -3 3 -2 23 2
46 4 23 9 39 11 37 3 -2 2 -23 -2 -46z m776 19 c0 -5 18 -10 40 -10 33 0 40
-3 40 -20 0 -18 -7 -20 -82 -20 -80 0 -81 0 -63 20 10 11 24 20 32 20 7 0 13
5 13 10 0 6 5 10 10 10 6 0 10 -4 10 -10z m7320 -20 c0 -27 -3 -30 -30 -30
-23 0 -30 4 -30 20 0 13 7 20 20 20 11 0 20 5 20 10 0 6 5 10 10 10 6 0 10
-13 10 -30z m-7760 -137 l0 -88 -85 3 -85 3 1 82 c1 45 3 74 6 65 5 -22 19
-23 26 -4 6 15 34 22 100 25 l37 1 0 -87z m8660 5 l0 -83 -85 -2 -85 -2 4 77
4 77 43 6 c24 3 61 7 82 7 l37 2 0 -82z m-8310 -15 c0 -62 -3 -82 -12 -77 -6
4 -42 7 -80 6 l-68 -2 0 35 c0 31 3 35 25 35 18 0 25 5 25 20 0 13 7 20 20 20
13 0 20 7 20 19 0 18 15 25 58 27 9 1 12 -22 12 -83z m7950 2 l0 -75 -64 0
c-92 0 -96 3 -96 64 0 36 3 47 10 36 6 -10 10 -11 10 -2 0 8 20 12 65 12 58 0
65 2 65 20 0 11 2 20 5 20 3 0 5 -34 5 -75z m570 -17 c0 -26 2 -27 65 -30 89
-4 83 -23 -7 -23 l-73 0 -3 55 c-2 39 0 51 8 40 5 -8 10 -27 10 -42z m-8720
-90 c0 -9 4 -8 10 2 7 10 10 -11 10 -69 l0 -84 -37 7 c-21 3 -57 6 -80 6 l-43
0 0 48 c0 29 6 56 16 68 15 18 15 18 5 -3 -14 -28 -14 -93 -1 -93 6 0 10 5 10
10 0 6 9 10 20 10 14 0 20 7 20 23 0 13 9 32 20 42 11 10 20 24 20 32 0 7 7
13 15 13 8 0 15 -6 15 -12z m8685 -97 l7 -53 -86 4 -86 3 0 43 c0 38 2 42 25
42 30 0 36 36 8 43 -10 2 8 2 40 -1 51 -4 57 -3 57 14 1 33 27 -39 35 -95z
m-8313 -6 l3 -45 -72 0 c-65 0 -73 2 -73 19 0 11 9 23 20 26 11 3 20 11 20 16
0 5 18 9 40 9 22 0 40 5 40 10 0 6 4 10 9 10 5 0 11 -20 13 -45z m7958 5 l0
-40 -40 0 c-30 0 -40 4 -40 16 0 20 24 44 44 44 9 0 16 5 16 10 0 6 5 10 10
10 6 0 10 -18 10 -40z m177 -112 c-3 -8 -6 -5 -6 6 -1 11 2 17 5 13 3 -3 4
-12 1 -19z m-360 -105 c-2 -16 -4 -5 -4 22 0 28 2 40 4 28 2 -13 2 -35 0 -50z
m362 15 c-1 -37 -2 -39 -9 -18 -12 36 -12 60 0 60 6 0 10 -19 9 -42z m-9552
-30 c-3 -7 -5 -2 -5 12 0 14 2 19 5 13 2 -7 2 -19 0 -25z m9403 12 c0 -11 -4
-20 -10 -20 -5 0 -10 9 -10 20 0 11 5 20 10 20 6 0 10 -9 10 -20z m130 0 c0
-18 -7 -20 -60 -20 -53 0 -60 2 -60 20 0 18 7 20 60 20 53 0 60 -2 60 -20z
m-9170 -9 c0 -5 -7 -11 -15 -15 -9 -3 -15 0 -15 9 0 8 7 15 15 15 8 0 15 -4
15 -9z m345 -11 c4 -6 -7 -10 -27 -9 -31 1 -32 1 -8 9 14 4 26 8 27 9 1 1 5
-3 8 -9z m9158 -7 c-18 -2 -48 -2 -65 0 -18 2 -4 4 32 4 36 0 50 -2 33 -4z
m-9333 -108 l0 -85 -80 0 c-73 0 -80 2 -80 20 0 13 7 20 20 20 17 0 20 7 20
40 0 33 3 40 20 40 13 0 20 7 20 19 0 19 16 26 63 30 15 1 17 -9 17 -84z m360
-23 l0 -58 -83 0 -84 1 0 58 0 57 84 0 83 0 0 -58z m7940 38 c0 -11 -4 -20
-10 -20 -5 0 -10 -18 -10 -40 l0 -40 -65 0 c-36 0 -65 4 -65 9 0 5 -2 24 -5
42 -4 29 -3 30 4 9 9 -24 9 -24 10 -2 1 15 7 22 21 22 13 0 20 7 20 20 0 17 7
20 50 20 43 0 50 -3 50 -20z m-7033 -52 c-3 -7 -5 -2 -5 12 0 14 2 19 5 13 2
-7 2 -19 0 -25z m5990 0 c-3 -7 -5 -2 -5 12 0 14 2 19 5 13 2 -7 2 -19 0 -25z
m1780 -20 c-3 -7 -5 -2 -5 12 0 14 2 19 5 13 2 -7 2 -19 0 -25z m-9390 -20
c-3 -7 -5 -2 -5 12 0 14 2 19 5 13 2 -7 2 -19 0 -25z m8650 0 c-3 -7 -5 -2 -5
12 0 14 2 19 5 13 2 -7 2 -19 0 -25z m-1017 18 c0 -2 -7 -6 -15 -10 -8 -3 -15
-1 -15 4 0 6 7 10 15 10 8 0 15 -2 15 -4z m-6030 -131 l0 -95 -80 0 -80 0 0
29 c0 16 7 34 15 41 8 7 15 21 15 31 0 11 5 19 10 19 6 0 10 -4 10 -10 0 -5 9
-10 20 -10 11 0 20 5 20 10 0 6 14 10 30 10 28 0 30 3 30 35 0 19 2 35 5 35 3
0 5 -43 5 -95z m-1574 28 c3 -18 11 -23 34 -23 17 0 30 5 30 10 0 6 9 10 20
10 11 0 20 5 20 10 0 22 19 8 23 -17 2 -16 4 -9 3 15 -1 23 2 42 6 42 5 0 8
-12 8 -27 0 -16 3 -52 6 -80 l7 -53 -87 0 -86 0 1 88 c1 48 3 78 6 67 2 -11 6
-30 9 -42z m424 40 l75 -1 3 -81 3 -81 -75 0 c-65 0 -77 3 -86 20 -11 20 -11
167 -1 152 4 -4 40 -8 81 -9z m356 -3 c36 0 64 4 64 10 0 6 5 10 10 10 6 0 10
-35 10 -84 0 -98 2 -96 -101 -96 l-69 0 0 74 c0 72 9 123 18 98 2 -8 27 -12
68 -12z m-987 -99 c1 -51 0 -53 -21 -47 -13 3 -47 6 -75 6 -42 0 -53 3 -53 16
0 20 24 44 44 44 9 0 16 5 16 10 0 6 14 10 30 10 26 0 31 4 37 33 7 31 7 31
14 7 4 -14 7 -49 8 -79z m7753 39 c3 15 6 2 7 -33 0 -37 -3 -56 -9 -52 -5 3
-10 1 -10 -4 0 -21 -82 -12 -107 11 -28 26 -29 38 -3 38 11 0 20 5 20 10 0 6
18 10 40 10 l40 0 2 43 1 42 6 -45 c6 -37 8 -40 13 -20z m1258 1 c0 -33 3 -66
6 -75 5 -14 -6 -16 -85 -16 l-91 0 1 58 c1 31 4 47 6 35 4 -23 23 -33 23 -13
0 6 9 10 20 10 11 0 20 7 20 15 0 27 24 44 63 45 l37 0 0 -59z m-350 -36 l0
-55 -85 0 c-79 0 -114 13 -62 23 18 4 17 5 -7 6 -21 1 -27 5 -22 17 3 9 6 18
6 20 0 2 27 4 59 4 38 0 61 5 65 13 5 10 7 10 12 0 9 -20 24 -15 24 7 0 11 2
20 5 20 3 0 5 -25 5 -55z m-7243 -47 c-3 -8 -6 -5 -6 6 -1 11 2 17 5 13 3 -3
4 -12 1 -19z m-1239 -115 l3 -83 -86 0 c-47 0 -85 3 -85 8 0 4 7 15 14 25 7 9
11 28 8 42 -3 20 0 25 15 25 10 0 25 9 33 20 10 14 26 20 52 20 51 0 49 18 -2
23 l-40 4 42 -1 43 -1 3 -82z m346 65 c3 -13 6 -51 6 -85 l0 -63 -80 0 -80 0
0 50 c0 28 5 50 10 50 6 0 10 9 10 20 0 17 7 20 53 21 48 2 49 2 17 9 l-35 7
35 5 c19 2 40 6 46 6 7 1 14 -8 18 -20z m964 15 c-10 -2 -26 -2 -35 0 -10 3
-2 5 17 5 19 0 27 -2 18 -5z m112 -3 c11 -7 0 -10 -37 -10 -29 0 -53 5 -53 10
0 13 70 13 90 0z m7230 -81 l0 -79 -80 0 -81 0 3 78 c2 62 6 76 18 73 57 -13
90 -12 105 3 27 27 35 9 35 -75z m-8427 74 c-7 -2 -19 -2 -25 0 -7 3 -2 5 12
5 14 0 19 -2 13 -5z m470 -5 c14 -7 17 -22 17 -78 l0 -70 -85 0 -86 0 2 80 3
79 65 -1 c36 0 74 -5 84 -10z m367 -79 c0 -65 -3 -79 -16 -79 -8 0 -13 4 -9 9
3 6 -7 6 -27 0 -18 -5 -50 -9 -70 -9 -33 0 -38 3 -38 24 0 13 -2 39 -5 57 -5
31 -4 32 6 12 7 -13 20 -23 31 -23 14 0 18 8 18 40 l0 40 45 0 c25 0 45 5 45
11 0 5 5 7 10 4 6 -3 10 -42 10 -86z m321 71 l49 0 0 -70 0 -70 -80 0 c-44 0
-83 1 -87 3 -7 2 -4 127 4 140 3 5 19 6 35 3 17 -3 52 -6 79 -6z m6246 -22
c-3 -8 -6 -5 -6 6 -1 11 2 17 5 13 3 -3 4 -12 1 -19z m133 -48 l0 -70 -42 1
c-72 2 -93 11 -96 44 -2 29 -2 29 13 11 8 -11 15 -14 15 -8 0 7 9 12 20 12 13
0 20 7 20 20 0 13 7 20 20 20 13 0 20 7 20 20 0 11 7 20 15 20 12 0 15 -14 15
-70z m377 -52 c-2 -13 -4 -3 -4 22 0 25 2 35 4 23 2 -13 2 -33 0 -45z m-730 5
c-3 -10 -5 -4 -5 12 0 17 2 24 5 18 2 -7 2 -21 0 -30z m207 4 c4 -19 3 -26 -4
-22 -5 3 -10 18 -10 32 0 32 5 28 14 -10z m1255 1 c1 14 41 17 41 2 0 -15 87
-12 93 3 3 6 6 3 6 -9 1 -20 -5 -21 -79 -23 l-80 -2 1 33 c1 31 1 32 9 8 4
-14 8 -19 9 -12z m-7267 -158 l-4 -70 -78 0 -79 0 6 38 c3 20 10 39 15 40 4 2
8 12 8 23 0 12 7 19 20 19 11 0 20 5 20 10 0 6 9 10 20 10 11 0 20 5 20 10 0
6 9 10 20 10 11 0 20 6 21 13 1 6 4 2 7 -11 4 -12 6 -54 4 -92z m7228 20 l0
-90 -81 0 c-79 0 -81 1 -76 23 20 83 28 103 41 113 9 6 16 19 16 28 0 13 10
16 50 16 l50 0 0 -90z m-8660 -10 l0 -81 -77 3 c-77 3 -78 3 -81 31 -2 19 1
27 13 27 20 0 65 44 65 65 0 8 9 15 20 15 11 0 20 5 20 10 0 6 9 10 20 10 18
0 20 -7 20 -80z m720 3 c0 -82 -1 -83 -91 -83 l-79 0 0 48 c0 61 10 75 48 71
18 -2 38 3 49 13 23 20 56 27 65 13 4 -5 8 -33 8 -62z m8300 -3 l0 -80 -79 0
c-44 0 -83 5 -86 10 -3 6 -3 42 1 80 l7 70 78 0 79 0 0 -80z m-9372 -75 c-2
-1 -28 1 -58 5 -53 7 -53 7 -12 9 l42 1 0 40 c0 22 5 40 10 40 6 0 11 10 12
23 1 12 4 -9 5 -47 2 -37 3 -69 1 -71z m712 60 l0 -65 -80 0 -80 0 1 53 c1 28
4 42 6 30 5 -28 33 -30 33 -3 0 22 15 27 24 8 5 -10 7 -10 12 0 3 6 21 12 40
12 24 0 34 5 34 15 0 8 2 15 5 15 3 0 5 -29 5 -65z m624 43 c5 -10 7 -10 12 0
3 6 19 12 35 12 28 0 29 -2 29 -44 0 -24 3 -51 6 -60 5 -14 -6 -16 -80 -16
l-86 0 0 36 c0 38 18 64 44 64 9 0 16 5 16 10 0 14 17 12 24 -2z m6332 -48
c30 0 54 5 54 10 0 6 7 10 15 10 11 0 15 -11 15 -35 l0 -36 -72 3 -73 3 -1 45
c-1 25 0 35 3 23 4 -20 10 -23 59 -23z m1907 -18 c4 -32 2 -50 -3 -47 -6 4
-10 29 -10 57 0 64 5 60 13 -10z m151 11 c-3 -27 -7 -49 -8 -49 0 -1 -25 1
-53 3 -48 5 -53 8 -53 29 0 17 6 24 20 24 13 0 20 7 20 20 0 17 7 20 41 20
l40 0 -7 -47z m-1114 -13 c0 -18 -7 -20 -60 -20 -53 0 -60 2 -60 20 0 18 7 20
60 20 53 0 60 -2 60 -20z m-7720 -157 l0 -84 -82 3 -83 3 -3 90 -3 91 86 -10
85 -9 0 -84z m-360 17 c0 -44 0 -83 0 -87 0 -15 -153 -15 -161 -1 -10 16 -12
152 -2 161 3 4 42 7 85 7 l78 0 0 -80z m691 58 c1 -22 1 -22 9 2 5 17 8 -6 9
-67 l1 -93 -80 0 -80 0 0 68 0 67 45 -3 c43 -4 45 -3 45 22 0 21 5 26 25 26
19 0 25 -5 26 -22z m7927 13 c17 -1 22 -7 23 -28 l1 -28 8 25 c6 17 8 -2 7
-55 l-2 -80 -77 -3 -78 -3 0 88 0 89 48 -2 c26 -1 57 -3 70 -3z m402 -81 l0
-91 -82 3 -83 3 -3 88 -3 87 86 0 85 0 0 -90z m261 50 c32 0 39 -3 39 -20 0
-13 7 -20 20 -20 16 0 20 -7 20 -34 0 -19 3 -41 6 -50 5 -14 -5 -16 -75 -16
l-81 0 0 70 c0 40 4 70 10 70 6 0 11 10 11 23 l2 22 4 -22 c4 -19 11 -23 44
-23z m-1123 -62 c2 15 8 22 22 22 13 0 20 7 20 20 0 17 7 20 49 20 l48 0 6
-56 c8 -80 5 -84 -68 -84 -94 0 -95 1 -93 79 1 63 1 64 8 21 4 -25 8 -35 8
-22z m-748 -23 l0 -45 -77 0 c-75 0 -78 1 -79 24 -2 21 2 23 52 25 48 1 54 -1
54 -19 0 -13 7 -20 20 -20 17 0 20 7 20 40 0 22 2 40 5 40 3 0 5 -20 5 -45z
m-6449 -15 c21 0 39 -4 39 -9 0 -6 19 -12 43 -14 23 -2 3 -4 -45 -5 l-88 -2 1
38 c1 23 3 28 6 15 4 -19 11 -23 44 -23z m5746 34 c-3 -3 -12 -4 -19 -1 -8 3
-5 6 6 6 11 1 17 -2 13 -5z m0 -51 c-3 -10 -5 -4 -5 12 0 17 2 24 5 18 2 -7 2
-21 0 -30z m-7064 -10 c-7 -2 -21 -2 -30 0 -10 3 -4 5 12 5 17 0 24 -2 18 -5z
m182 -106 c-4 -45 -8 -84 -10 -87 -2 -3 -37 -4 -79 -2 l-76 4 0 81 0 82 86 2
86 2 -7 -82z m305 52 c0 -28 37 -25 43 4 2 12 5 -17 6 -65 l1 -88 -74 0 c-44
0 -78 5 -82 11 -9 15 -18 134 -12 151 4 9 22 12 62 10 47 -3 56 -7 56 -23z
m408 -59 l-3 -85 -80 0 -80 0 -3 79 c-2 57 1 82 10 88 7 4 46 7 86 5 l73 -2
-3 -85z m7946 74 c3 -9 6 -49 6 -90 l0 -75 -87 3 c-101 3 -99 1 -88 104 l6 63
62 4 c34 2 69 4 78 5 9 1 20 -5 23 -14z m-354 -80 l0 -74 -85 0 -85 0 0 60 0
60 60 0 c45 0 60 3 60 14 0 14 28 26 43 19 4 -2 7 -38 7 -79z m710 7 l0 -79
-75 -7 c-41 -3 -79 -4 -85 0 -5 3 -10 42 -10 86 l0 79 85 0 85 0 0 -79z m360
-6 l0 -86 -82 3 -83 3 -3 83 -3 82 86 0 85 0 0 -85z m-9730 -12 l0 -73 -75 0
-75 0 0 45 c0 38 3 45 20 45 13 0 20 7 20 19 0 13 10 20 31 25 17 3 35 3 40 0
5 -3 9 -1 9 4 0 5 7 9 15 9 12 0 15 -15 15 -74z m7070 -8 l0 -65 -32 0 c-18 0
-28 4 -21 8 6 4 15 25 19 47 l9 40 6 -45 c6 -43 6 -43 7 18 2 82 12 80 12 -3z
m-6253 -95 c18 0 33 -4 33 -10 0 -5 9 -10 20 -10 18 0 20 -7 20 -75 l0 -76
-82 3 -83 3 -3 92 -3 92 33 -10 c18 -5 48 -9 65 -9z m6427 -29 c10 -73 7 -133
-5 -125 -6 4 -35 12 -63 19 -28 7 -41 13 -28 14 20 1 22 6 22 65 0 59 -2 65
-22 68 -13 2 2 4 33 4 l57 0 6 -45z m-6730 33 c13 -5 16 -23 16 -91 l0 -85
-31 6 c-17 3 -56 6 -86 6 l-54 0 3 85 3 85 67 0 c36 0 73 -3 82 -6z m8297 -21
l1 -28 8 30 c5 21 8 5 9 -56 l1 -86 -67 -6 c-37 -3 -73 -3 -80 0 -9 4 -13 25
-13 67 0 43 3 57 10 46 7 -11 10 -7 10 17 0 30 2 32 43 36 23 2 50 4 60 5 12
2 17 -6 18 -25z m736 -149 c-2 -2 -40 -1 -85 3 l-82 6 0 78 c0 46 4 79 10 79
6 0 11 -10 11 -22 l2 -23 4 23 c4 18 11 22 44 22 32 0 39 -3 39 -20 0 -13 7
-20 20 -20 13 0 20 7 20 18 0 10 3 22 8 26 4 4 8 -31 10 -79 2 -48 1 -89 -1
-91z m-416 144 c0 -13 3 -17 6 -10 2 6 11 12 19 12 8 0 14 -6 15 -12 1 -7 5
-2 9 12 6 16 8 -4 7 -60 l-2 -85 -75 0 -75 1 -3 82 -3 82 51 0 c45 0 50 -2 51
-22z m645 -23 c6 -35 6 -35 60 -35 47 0 54 -2 54 -20 0 -13 -7 -20 -20 -20
-13 0 -20 -7 -20 -20 0 -18 -7 -20 -55 -20 l-55 0 0 68 c0 38 3 72 7 75 14 14
22 6 29 -28z m-9602 -11 c3 -9 6 -36 6 -60 0 -40 -2 -44 -25 -44 -22 0 -25 4
-25 40 0 22 5 40 10 40 6 0 10 9 10 20 0 24 15 27 24 4z m1056 -20 c0 -21 -4
-33 -10 -29 -11 7 -14 -8 -3 -19 4 -3 8 -13 9 -21 2 -12 -12 -15 -67 -15 -62
0 -69 2 -69 20 0 15 7 20 28 20 16 0 34 8 42 20 8 11 22 20 32 20 11 0 18 7
18 20 0 11 5 20 10 20 6 0 10 -16 10 -36z m377 -76 c-3 -7 -5 -2 -5 12 0 14 2
19 5 13 2 -7 2 -19 0 -25z m6172 8 c10 -6 12 -5 7 2 -5 8 1 12 16 12 13 0 18
-3 12 -8 -8 -4 -12 -49 -13 -122 0 -63 -4 -204 -7 -312 -4 -122 -3 -198 3
-198 9 0 66 62 198 215 38 44 76 85 85 92 19 14 167 28 215 19 35 -7 35 -7 21
-35 -8 -15 -40 -54 -71 -87 -48 -49 -93 -105 -179 -219 -10 -13 34 -78 181
-273 110 -145 130 -179 113 -196 -6 -6 -53 -13 -104 -14 -75 -3 -100 0 -127
14 -19 10 -44 17 -56 15 -13 -1 -23 2 -23 8 0 6 -18 11 -40 11 -22 0 -40 -4
-40 -10 0 -5 -4 -10 -10 -10 -5 0 -10 9 -10 20 0 11 5 20 10 20 6 0 10 11 10
25 0 23 4 25 45 25 l45 0 -45 68 c-25 37 -55 85 -66 107 -12 22 -23 42 -26 44
-2 3 -32 -23 -67 -58 l-64 -63 -1 -90 c-1 -50 -6 -99 -11 -109 -6 -10 -26 -21
-46 -25 -44 -8 -122 0 -136 14 -6 6 -14 71 -19 144 -9 168 0 924 12 956 5 13
7 27 5 30 -6 10 166 -2 183 -12z m144 -13 c-7 -2 -19 -2 -25 0 -7 3 -2 5 12 5
14 0 19 -2 13 -5z m-6508 -11 c17 -12 171 -231 330 -471 l150 -224 5 339 c3
186 9 345 13 352 6 8 38 12 101 12 75 0 96 -3 107 -17 11 -13 14 -112 14 -550
0 -464 -2 -535 -15 -543 -26 -16 -163 -12 -188 6 -22 15 -65 69 -151 188 -24
34 -63 86 -86 116 -52 68 -133 183 -190 271 -24 37 -49 70 -56 75 -10 6 -11
-55 -5 -287 6 -292 2 -353 -26 -371 -7 -4 -46 -8 -85 -8 -61 0 -76 3 -94 21
-21 21 -21 23 -17 551 3 454 5 530 18 538 18 11 160 13 175 2z m3883 -4 c9 -9
12 -69 12 -209 0 -109 3 -204 6 -213 5 -14 32 -16 195 -16 l189 0 0 125 c0 77
-4 125 -10 125 -15 0 -12 64 5 86 8 10 15 38 15 60 0 51 6 54 116 54 73 0 87
-3 106 -22 l21 -21 -6 -478 c-6 -410 -5 -480 8 -492 8 -8 11 -17 8 -21 -4 -3
-7 -14 -8 -24 0 -10 -8 -29 -18 -41 -15 -23 -19 -24 -105 -18 -49 4 -96 9
-105 13 -22 8 -30 83 -30 272 l0 162 -193 0 -194 0 0 -192 c0 -106 -3 -203 -6
-216 -8 -28 -40 -37 -132 -36 -51 0 -77 5 -88 16 -13 13 -15 84 -17 544 -1
291 2 535 6 542 11 16 208 17 225 0z m-4938 -67 c0 -32 -3 -73 -6 -90 -6 -30
-9 -31 -53 -30 -65 2 -104 12 -109 28 -3 8 0 11 7 7 8 -5 11 10 11 48 0 49 2
56 20 56 11 0 20 6 20 14 0 19 15 24 68 25 l42 1 0 -59z m350 -26 l0 -85 -80
0 c-77 0 -80 1 -80 24 0 12 -3 51 -6 85 l-7 61 87 0 86 0 0 -85z m313 79 l37
-7 0 -71 c0 -39 -4 -76 -8 -82 -5 -8 -31 -10 -79 -7 l-73 6 0 68 c0 37 -3 74
-6 83 -5 13 2 16 42 16 27 0 66 -3 87 -6z m7995 -76 l-3 -83 -79 -3 c-44 -2
-82 1 -85 7 -3 5 -4 39 -3 75 4 64 4 66 35 75 18 5 56 10 85 10 l53 1 -3 -82z
m691 71 c-23 -7 -23 -7 -1 -8 21 -1 22 -5 22 -70 l0 -69 -39 -7 c-22 -3 -60
-3 -86 0 l-46 7 2 79 2 78 85 -2 c51 -1 76 -4 61 -8z m-9709 -84 l0 -85 -49 0
c-41 0 -51 4 -65 25 -12 19 -14 30 -6 44 5 11 10 36 10 55 0 35 1 36 40 36 22
0 40 -4 40 -10 0 -5 5 -10 10 -10 6 0 10 7 10 15 0 8 2 15 5 15 3 0 5 -38 5
-85z m9250 55 c0 -18 7 -20 60 -20 l60 0 0 -49 c0 -46 -1 -49 -31 -55 -17 -3
-53 -6 -80 -6 l-49 0 0 75 c0 68 2 75 20 75 13 0 20 -7 20 -20z m-720 -60 c0
-13 7 -20 20 -20 11 0 20 -4 20 -10 0 -5 10 -10 23 -11 21 -1 21 -1 -3 -8 -14
-4 -42 -11 -62 -15 l-38 -7 0 46 c0 38 3 45 20 45 13 0 20 -7 20 -20z m-8000
-185 l0 -85 -67 0 c-38 0 -73 4 -79 8 -6 4 -12 31 -13 59 -3 55 12 83 43 83 9
0 16 5 16 10 0 6 23 10 50 10 l50 0 0 -85z m8297 8 c-2 -16 -4 -3 -4 27 0 30
2 43 4 28 2 -16 2 -40 0 -55z m220 45 c-3 -8 -6 -5 -6 6 -1 11 2 17 5 13 3 -3
4 -12 1 -19z m-8175 -127 c-6 -3 -42 -5 -81 -3 l-71 4 0 51 c0 38 3 48 10 37
9 -13 11 -13 20 0 9 13 11 13 20 0 9 -13 11 -13 21 0 8 11 12 12 16 3 2 -7 15
-13 28 -13 13 0 26 -6 28 -12 3 -7 7 3 8 22 2 22 4 13 6 -24 2 -33 0 -62 -5
-65z m1850 66 c35 -17 78 -51 112 -88 65 -70 90 -136 101 -270 l7 -86 -108 -6
c-59 -4 -185 -7 -281 -7 l-174 0 7 -22 c18 -58 83 -119 145 -136 38 -10 100
-3 134 15 24 13 61 53 66 71 4 12 100 -50 156 -100 l21 -20 -78 -59 c-113 -85
-147 -99 -254 -99 -79 0 -95 3 -155 32 -81 39 -167 122 -204 198 -55 114 -59
299 -7 400 41 80 125 154 219 192 72 29 218 21 293 -15z m463 11 c6 -5 12
-113 15 -261 6 -273 9 -291 63 -331 42 -31 115 -28 161 8 20 15 40 35 45 44 5
10 11 133 14 275 2 147 9 263 14 268 5 5 54 8 109 7 l99 -3 3 -388 c1 -238 -2
-395 -8 -406 -11 -22 -91 -35 -156 -25 l-44 6 0 60 0 61 -42 -37 c-24 -20 -63
-51 -88 -67 -42 -28 -50 -30 -115 -26 -83 5 -137 29 -185 83 -67 77 -72 103
-81 374 -4 135 -11 271 -14 302 -4 31 -4 62 0 68 8 12 195 2 210 -12z m1109
-26 c6 -50 -5 -137 -21 -153 -4 -4 -44 -15 -87 -24 -152 -29 -157 -39 -159
-350 -2 -177 -5 -237 -15 -247 -8 -8 -40 -13 -87 -13 -64 0 -78 3 -97 23 l-23
23 3 382 c2 210 4 383 6 384 1 1 47 4 102 5 l99 3 3 -48 3 -48 45 40 c53 46
110 69 175 70 l46 1 7 -48z m454 33 c67 -20 197 -108 227 -154 39 -60 58 -145
59 -261 1 -93 -2 -111 -25 -160 -14 -31 -44 -76 -67 -100 -23 -26 -38 -50 -35
-59 4 -12 3 -13 -4 -3 -8 10 -23 4 -69 -26 -32 -22 -76 -45 -96 -51 -52 -17
-182 -15 -219 3 -16 8 -27 11 -25 7 3 -4 -1 -8 -9 -8 -8 0 -12 4 -9 9 3 5 -26
38 -65 74 -90 84 -137 172 -151 288 -22 175 51 320 206 411 76 44 191 57 282
30z m1759 1 c67 -18 110 -45 161 -100 34 -37 41 -53 50 -112 13 -79 21 -588
10 -599 -4 -4 -39 -10 -78 -13 -82 -6 -110 10 -110 62 0 58 -12 59 -74 7 -116
-99 -276 -100 -372 -4 -56 55 -69 89 -67 172 5 186 126 271 387 271 l106 0 0
38 c0 72 -54 112 -151 112 -60 0 -101 -21 -125 -65 l-17 -31 -66 9 c-36 4 -72
13 -79 19 -9 8 -12 32 -10 77 3 65 3 65 51 102 27 20 69 43 95 51 60 20 220
22 289 4z m835 -18 c86 -39 178 -143 178 -200 0 -23 -8 -32 -50 -53 -70 -36
-89 -33 -133 20 -56 66 -89 79 -194 76 -89 -3 -158 -148 -133 -281 20 -105 86
-170 173 -170 61 0 116 28 158 80 18 22 37 40 43 40 6 -1 40 -27 76 -60 l65
-59 -31 -38 c-48 -60 -148 -131 -212 -150 -31 -9 -84 -17 -118 -17 -52 -1 -73
5 -148 42 -93 46 -143 96 -191 191 -52 104 -60 278 -17 374 40 91 154 190 255
223 67 22 211 13 279 -18z m1748 12 c0 -17 7 -20 40 -20 28 0 40 -4 40 -14 0
-8 3 -21 6 -30 5 -14 -4 -16 -64 -16 -39 0 -74 5 -77 10 -3 6 -1 10 4 10 6 0
11 18 11 40 0 33 3 40 20 40 13 0 20 -7 20 -20z m-9000 -30 c0 -5 9 -10 20
-10 11 0 20 -4 20 -10 0 -5 12 -10 27 -10 56 0 6 -18 -69 -25 l-78 -7 0 36 c0
35 1 36 40 36 22 0 40 -4 40 -10z m268 -165 l-3 -90 -32 -3 c-18 -2 -33 1 -33
7 0 5 -21 11 -47 13 l-48 3 -3 43 c-2 25 1 42 7 42 15 0 14 37 -1 43 -7 2 12
7 42 11 30 4 62 11 69 16 8 5 23 8 33 7 17 -1 18 -10 16 -92z m354 3 c2 -46 2
-85 1 -87 -3 -5 -156 -1 -161 4 -2 1 -4 39 -6 84 l-3 81 83 0 82 0 4 -82z
m-721 32 c4 17 7 0 8 -50 1 -89 -18 -75 -24 18 -2 31 -1 46 2 32 l6 -25 8 25z
m9556 -52 c-3 -7 -5 -2 -5 12 0 14 2 19 5 13 2 -7 2 -19 0 -25z m-2280 -40
c-3 -7 -5 -2 -5 12 0 14 2 19 5 13 2 -7 2 -19 0 -25z m-6735 -158 l3 -70 -87
0 -88 0 0 43 c0 28 3 37 9 28 7 -11 14 -9 35 12 14 14 26 33 26 42 0 11 11 15
49 15 l49 0 4 -70z m-352 -7 l0 -68 -85 -3 -85 -3 0 46 c0 38 3 45 20 45 11 0
20 -4 20 -10 0 -5 9 -10 20 -10 11 0 20 5 20 10 0 6 9 10 20 10 11 0 20 -4 20
-10 0 -5 9 -10 20 -10 16 0 20 7 20 35 0 19 2 35 5 35 3 0 5 -30 5 -67z m9190
-18 l0 -55 -79 0 c-83 0 -91 4 -83 47 3 14 11 23 23 23 12 0 19 7 19 20 0 18
7 20 60 20 l60 0 0 -55z m360 0 l0 -55 -85 0 -85 0 0 35 c0 35 0 35 45 35 38
0 45 3 45 20 0 17 7 20 40 20 l40 0 0 -55z m245 -45 c4 -6 -5 -10 -19 -10 -14
0 -26 5 -26 10 0 6 9 10 19 10 11 0 23 -4 26 -10z m-9624 -80 c3 14 5 -5 5
-41 -1 -53 -4 -66 -16 -63 -8 1 -44 3 -78 3 l-64 1 7 40 c4 26 3 40 -4 40 -6
0 -11 9 -11 20 0 18 7 20 70 20 65 0 70 1 72 23 0 12 4 2 7 -23 6 -36 8 -40
12 -20z m5169 8 c0 -38 -3 -49 -10 -38 -5 8 -10 29 -10 47 0 31 -2 32 -47 36
-47 3 -47 3 10 5 l57 2 0 -52z m3517 30 c-3 -8 -6 -5 -6 6 -1 11 2 17 5 13 3
-3 4 -12 1 -19z m501 7 c8 -3 12 -29 12 -85 l0 -81 -82 3 -83 3 -3 86 -3 86
73 -4 c40 -3 79 -6 86 -8z m325 -7 c15 -7 27 -20 27 -28 0 -12 2 -13 9 -1 5 8
8 -13 7 -53 -1 -77 -4 -79 -101 -74 -57 3 -60 4 -59 28 8 135 6 125 38 131 48
10 50 10 79 -3z m-1023 -118 l0 -40 -80 0 c-44 0 -80 4 -80 8 0 4 15 6 33 4
22 -2 39 2 50 12 21 21 61 22 53 1 -3 -8 -1 -15 4 -15 6 0 10 16 10 35 0 19 2
35 5 35 3 0 5 -18 5 -40z m-3353 -36 c-3 -3 -12 -4 -19 -1 -8 3 -5 6 6 6 11 1
17 -2 13 -5z m3710 0 c-3 -3 -12 -4 -19 -1 -8 3 -5 6 6 6 11 1 17 -2 13 -5z
m-8526 -30 c29 -14 31 -15 26 0 -4 9 -2 16 3 16 6 0 10 -40 10 -95 l0 -95 -85
0 -85 0 0 93 0 93 50 3 c30 1 61 -4 81 -15z m383 -25 c3 -17 6 -57 6 -88 l0
-56 -78 0 -77 0 -3 68 c-2 42 1 67 8 67 5 0 10 -6 11 -12 0 -10 2 -10 6 0 2 7
22 12 44 12 32 0 39 3 39 20 0 34 36 25 44 -11z m5761 -5 c18 -44 19 -36 -8
-68 -37 -43 -57 -27 -57 45 0 56 1 59 25 59 19 0 28 -8 40 -36z m2557 -50 c2
-47 1 -88 -1 -90 -2 -2 -40 -4 -83 -4 l-78 0 0 80 0 80 40 0 c22 0 40 -4 40
-10 0 -5 9 -10 20 -10 13 0 20 7 20 20 0 13 7 20 19 20 18 0 20 -9 23 -86z
m358 -9 l0 -85 -85 0 -85 0 0 70 0 70 45 0 c33 0 45 4 45 15 0 11 11 15 40 15
l40 0 0 -85z m-717 -10 c10 -72 6 -75 -89 -75 l-84 0 0 42 c0 61 20 77 101 77
l66 1 6 -45z m-357 -61 c-7 -18 -166 -20 -166 -2 0 16 30 48 46 48 7 0 15 6
18 13 5 10 7 10 12 0 3 -7 23 -13 45 -13 33 0 39 3 41 23 1 12 3 5 5 -17 3
-21 2 -44 -1 -52z m534 -120 l0 -84 -80 0 -80 0 0 85 0 84 73 3 c39 2 75 2 80
0 4 -2 7 -41 7 -88z m360 -1 l0 -93 -69 0 c-103 0 -101 -1 -101 94 0 46 2 85
4 87 3 2 41 4 85 4 l81 0 0 -92z m-9010 -3 l0 -90 -50 0 c-27 0 -61 5 -75 12
-24 11 -26 16 -22 57 3 26 9 61 12 79 l7 32 64 0 64 0 0 -90z m350 5 l0 -85
-80 0 -80 0 0 75 0 75 63 0 c34 0 69 5 77 10 8 5 16 10 18 10 1 0 2 -38 2 -85z
m4977 -37 c-2 -24 -4 -5 -4 42 0 47 2 66 4 43 2 -24 2 -62 0 -85z m1201 39
c-3 -83 -3 -83 -30 -85 -23 -2 -28 2 -28 21 0 13 -3 52 -6 86 l-7 61 37 0 36
0 -2 -83z m1609 21 c-2 -13 -4 -3 -4 22 0 25 2 35 4 23 2 -13 2 -33 0 -45z
m152 -26 c7 -89 12 -84 -81 -76 -56 6 -58 7 -58 35 0 16 5 29 10 29 6 0 10 14
10 30 0 23 5 30 19 30 11 0 22 6 25 13 5 10 7 10 12 0 10 -22 44 -15 44 9 0
49 12 4 19 -70z m1081 4 l0 -84 -77 -4 c-43 -2 -81 -2 -85 0 -5 2 -8 41 -8 86
l0 83 85 2 85 2 0 -85z m-8670 -6 l0 -80 -80 0 -80 0 0 65 0 65 75 0 c60 0 75
3 75 15 0 8 2 15 5 15 3 0 5 -36 5 -80z m231 -50 c10 0 19 -4 19 -10 0 -5 28
-11 63 -13 53 -3 50 -3 -25 -5 l-88 -2 1 38 c1 23 3 28 6 15 3 -15 12 -23 24
-23z m4045 -16 c-4 -10 -24 -14 -76 -14 -58 0 -70 3 -70 16 0 12 5 14 18 8 9
-4 41 -10 70 -12 l52 -4 1 34 c1 24 3 27 6 10 3 -13 2 -30 -1 -38z m-2969 4
c-3 -7 -5 -2 -5 12 0 14 2 19 5 13 2 -7 2 -19 0 -25z m-297 7 c0 -8 9 -15 20
-15 11 0 20 5 20 10 0 6 11 10 25 10 16 0 25 -6 25 -15 0 -12 -15 -15 -73 -15
-79 0 -93 5 -76 27 16 18 59 17 59 -2z m1854 -10 c4 -11 -2 -15 -24 -15 -35 0
-40 17 -7 23 12 2 23 5 23 6 1 0 4 -6 8 -14z m-101 -2 c-7 -2 -19 -2 -25 0 -7
3 -2 5 12 5 14 0 19 -2 13 -5z m-3890 -10 c-13 -2 -33 -2 -45 0 -13 2 -3 4 22
4 25 0 35 -2 23 -4z m1760 0 c-13 -2 -35 -2 -50 0 -16 2 -5 4 22 4 28 0 40 -2
28 -4z m3170 0 c-7 -2 -19 -2 -25 0 -7 3 -2 5 12 5 14 0 19 -2 13 -5z m800 0
c-7 -2 -19 -2 -25 0 -7 3 -2 5 12 5 14 0 19 -2 13 -5z m-1480 -10 c-7 -2 -19
-2 -25 0 -7 3 -2 5 12 5 14 0 19 -2 13 -5z m-3293 -93 l0 -90 -85 0 -85 0 0
90 0 90 85 0 85 0 0 -90z m7948 44 c2 -21 1 -63 -3 -91 l-6 -53 -79 0 c-43 0
-82 5 -85 10 -4 6 -3 46 1 90 l7 79 71 3 c95 5 91 7 94 -38z m352 -44 l0 -90
-79 0 -80 0 -3 85 c-3 97 -8 92 95 94 l67 1 0 -90z m-9372 -7 c-3 -99 -2 -97
-100 -87 -55 6 -58 8 -58 34 0 55 12 90 30 90 10 0 20 3 22 8 3 6 83 40 101
41 4 1 6 -38 5 -86z m360 0 l-3 -88 -80 0 -80 0 -3 88 -3 87 86 0 86 0 -3 -87z
m350 -2 l3 -81 -81 0 -80 0 0 86 0 86 78 -5 77 -4 3 -82z m581 57 c1 19 7 22
41 22 33 0 40 -3 40 -20 0 -15 7 -20 26 -20 24 0 26 -3 20 -31 -3 -17 -6 -44
-6 -60 l0 -29 -75 0 -75 0 0 78 c0 82 10 114 21 65 6 -23 7 -24 8 -5z m501
-59 l0 -79 -85 0 -85 0 0 60 0 60 55 0 c48 0 55 3 55 19 0 18 33 33 53 23 4
-2 7 -39 7 -83z m2479 6 l-3 -85 -58 0 c-32 0 -58 4 -58 10 0 5 14 25 30 43
17 19 30 42 30 51 0 10 9 16 25 16 20 0 25 5 25 25 0 14 2 25 5 25 4 0 5 -38
4 -85z m4389 -2 l3 -83 -86 0 -85 0 0 79 0 80 33 4 c17 2 55 4 82 3 l50 -1 3
-82z m1070 0 l-3 -88 -30 -3 c-16 -2 -53 -1 -82 3 l-53 6 0 85 0 84 85 0 86 0
-3 -87z m-2488 -3 l0 -80 -80 0 c-71 0 -80 2 -80 19 0 14 6 17 25 13 24 -4 25
-2 25 42 l0 46 50 0 c43 0 50 3 50 20 0 11 2 20 5 20 3 0 5 -36 5 -80z m-5083
-4 c-1 -24 -5 -42 -9 -40 -3 2 -8 1 -11 -3 -2 -5 -2 -2 0 5 1 8 3 29 3 48 0
19 4 34 10 34 5 0 8 -20 7 -44z m360 -48 c-2 -18 -4 -4 -4 32 0 36 2 50 4 33
2 -18 2 -48 0 -65z m894 70 c1 -22 1 -22 9 2 7 21 8 17 9 -22 2 -74 -2 -78
-75 -78 -57 0 -64 2 -64 20 0 13 7 20 20 20 13 0 20 7 20 20 0 13 7 20 20 20
13 0 20 7 20 20 0 30 40 27 41 -2z m2289 -38 c0 -57 -1 -60 -25 -60 -18 0 -25
5 -25 20 0 11 6 20 14 20 9 0 17 15 21 40 4 22 9 40 11 40 2 0 4 -27 4 -60z
m2510 40 c0 -17 7 -20 39 -20 33 0 40 4 43 23 2 12 4 -6 4 -40 l1 -63 -84 0
-83 0 0 40 c0 33 3 40 20 40 13 0 20 7 20 20 0 13 7 20 20 20 13 0 20 -7 20
-20z m-5353 -82 c-2 -13 -4 -3 -4 22 0 25 2 35 4 23 2 -13 2 -33 0 -45z m-47
-4 c0 -10 -13 -14 -45 -14 -36 0 -45 3 -45 18 0 14 7 17 45 14 30 -3 45 -9 45
-18z m1681 10 c2 2 30 6 62 10 53 6 57 5 57 -14 0 -18 -7 -20 -75 -20 -70 0
-75 1 -75 21 0 17 3 19 13 10 8 -6 16 -9 18 -7z m136 -16 c-3 -7 -5 -2 -5 12
0 14 2 19 5 13 2 -7 2 -19 0 -25z m638 16 c15 -10 25 -12 25 -5 0 6 9 11 20
11 11 0 20 -7 20 -15 0 -12 -15 -15 -75 -15 -43 0 -75 4 -75 10 0 6 17 10 38
11 33 1 34 2 12 9 -17 6 -19 8 -7 9 10 1 29 -6 42 -15z m745 -4 c0 -18 -7 -20
-60 -20 -45 0 -60 3 -60 14 0 16 23 22 83 25 31 1 37 -2 37 -19z m890 0 c0
-15 -7 -20 -25 -20 -18 0 -25 5 -25 20 0 15 7 20 25 20 18 0 25 -5 25 -20z
m-1927 -17 c-7 -2 -21 -2 -30 0 -10 3 -4 5 12 5 17 0 24 -2 18 -5z m-4083
-104 l0 -102 -76 5 c-41 3 -80 10 -85 15 -9 9 -8 95 2 151 2 8 21 12 58 12 31
0 63 5 71 10 8 5 18 10 23 10 4 0 7 -46 7 -101z m-356 24 c10 -111 13 -108
-89 -111 -77 -2 -87 -1 -81 13 3 9 6 48 6 85 l0 69 73 4 c39 1 75 4 78 5 4 1
10 -28 13 -65z m7942 -100 c-4 -11 -24 -13 -83 -11 l-78 3 -1 80 -2 80 82 5
81 5 3 -74 c2 -41 1 -80 -2 -88z m364 71 l0 -84 -85 0 -85 0 0 79 c0 44 5 83
10 86 6 3 10 1 10 -5 0 -8 6 -9 18 -5 23 11 104 22 120 17 8 -3 12 -30 12 -88z
m-8660 1 l0 -85 -84 0 c-46 0 -86 4 -88 10 -1 5 -1 39 0 75 l4 65 49 0 c27 0
49 5 49 10 0 6 16 10 35 10 l35 0 0 -85z m1068 -2 c3 -94 8 -90 -99 -85 l-69
4 0 84 0 85 83 -3 82 -3 3 -82z m7946 79 c2 -4 2 -44 -1 -89 l-6 -81 -81 2
c-94 1 -93 0 -81 113 l7 63 78 0 c43 0 81 -3 84 -8z m206 -4 c0 10 19 13 75
11 l75 -2 0 -88 0 -89 -32 0 c-18 0 -57 3 -85 6 l-53 7 0 86 c0 59 3 81 10 71
7 -11 10 -11 10 -2z m508 -74 l3 -82 -56 -7 c-30 -3 -69 -4 -85 0 l-30 7 0 80
c0 68 2 79 16 74 9 -3 12 -2 9 5 -5 6 18 9 67 7 l73 -3 3 -81z m-5474 70 c13
-5 16 -22 16 -80 l0 -74 -82 1 c-51 0 -75 3 -63 8 11 5 20 12 20 17 1 5 11 28
23 51 12 23 22 49 22 57 0 8 10 17 23 19 12 2 23 5 24 6 1 0 8 -2 17 -5z
m-2824 -79 l0 -75 -74 0 c-99 0 -106 3 -100 48 11 83 10 82 62 83 26 1 58 5
72 9 14 4 28 8 33 9 4 1 7 -33 7 -74z m4116 -10 c-2 -16 -1 -22 1 -12 4 14 16
17 68 17 l64 0 4 43 c3 33 4 29 5 -20 1 -44 -2 -63 -10 -64 -10 0 -10 -2 0 -6
6 -2 12 -12 12 -20 0 -10 -6 -13 -16 -9 -9 3 -45 6 -80 6 l-64 0 1 78 c1 62 2
71 10 47 5 -16 7 -43 5 -60z m-3756 -4 l0 -48 -46 -7 c-26 -3 -64 -6 -85 -6
-37 0 -39 2 -39 31 0 30 19 59 39 59 6 0 11 5 11 10 0 6 27 10 60 10 l60 0 0
-49z m3190 -3 l0 -53 -58 -1 -57 -1 42 10 c39 9 41 12 48 53 9 61 25 55 25 -8z
m-2510 22 c0 -5 9 -10 20 -10 16 0 20 -7 20 -35 l0 -35 -80 0 c-47 0 -80 4
-80 10 0 6 10 11 23 11 l22 2 -22 4 c-25 5 -30 26 -10 48 14 16 107 21 107 5z
m3947 -42 c-3 -7 -5 -2 -5 12 0 14 2 19 5 13 2 -7 2 -19 0 -25z m-2502 -18 c4
-6 -9 -10 -32 -10 -28 0 -34 3 -23 10 20 13 47 13 55 0z m1990 0 c3 -5 1 -10
-4 -10 -6 0 -11 5 -11 10 0 6 2 10 4 10 3 0 8 -4 11 -10z m655 -5 c0 -17 -43
-20 -101 -8 -33 7 -33 7 -9 14 48 14 110 10 110 -6z m-2737 -2 c-7 -2 -19 -2
-25 0 -7 3 -2 5 12 5 14 0 19 -2 13 -5z m-4003 -112 c0 -50 -3 -91 -7 -93 -5
-2 -41 -2 -80 0 l-73 4 0 39 c0 28 4 39 15 39 8 0 15 9 15 20 0 13 7 20 20 20
11 0 20 5 20 10 0 6 16 10 35 10 28 0 35 4 35 20 0 11 5 20 10 20 6 0 10 -36
10 -89z m355 -8 l0 -88 -82 -2 -83 -2 0 92 0 92 82 -2 83 -2 0 -88z m715 5 l0
-88 -80 0 c-44 0 -80 1 -81 3 0 1 -3 40 -5 87 l-4 85 85 0 85 0 0 -87z m1450
6 c0 -54 -4 -83 -10 -79 -5 3 -10 2 -10 -3 0 -5 -18 -5 -45 1 l-45 10 0 59 c0
51 -2 58 -20 58 -17 0 -20 -7 -21 -52 l-1 -53 -9 50 c-5 31 -4 51 1 53 6 2 10
12 10 23 0 17 8 19 75 19 l75 0 0 -86z m-1808 -6 c2 -46 2 -86 0 -90 -2 -5
-39 -8 -83 -8 l-79 0 0 74 c0 41 -3 81 -6 90 -5 14 5 16 79 16 l85 0 4 -82z
m707 15 c1 -38 3 -75 4 -83 3 -19 0 -20 -88 -20 l-75 0 0 85 0 85 78 0 79 0 2
-67z m291 47 l-65 -7 66 -1 c66 -2 67 -2 73 -33 3 -17 6 -49 6 -70 l0 -39 -86
0 -87 0 7 63 c6 54 13 102 15 102 1 0 31 -2 68 -5 l68 -4 -65 -6z m6948 -67
c3 -82 2 -83 -21 -83 -13 0 -52 -3 -86 -6 l-61 -7 0 81 0 80 53 10 c28 6 66 9
82 9 l30 -2 3 -82z m358 3 l-1 -85 -88 -3 c-69 -2 -86 0 -82 10 3 8 5 47 5 88
l0 74 84 0 83 0 -1 -84z m354 -1 l0 -85 -80 0 -80 0 0 63 c0 34 -3 72 -6 85
-6 22 -5 22 80 22 l86 0 0 -85z m360 -5 l0 -90 -85 0 -85 0 0 83 c0 46 3 87 7
90 3 4 42 7 85 7 l78 0 0 -90z m-1997 68 c4 -10 8 -9 16 2 8 12 11 7 11 -21 0
-20 3 -57 6 -83 l7 -46 -82 0 -81 0 -1 60 c-1 33 -2 65 -3 72 -2 24 118 39
127 16z m564 -35 c-3 -10 -5 -2 -5 17 0 19 2 27 5 18 2 -10 2 -26 0 -35z
m-4025 -105 c-5 -12 -102 -9 -102 2 0 6 9 10 20 10 17 0 20 7 20 40 0 36 3 40
25 40 19 0 25 6 27 23 1 12 4 -7 7 -43 4 -36 5 -68 3 -72z m2950 40 l3 -48
-67 0 -68 0 0 50 0 50 60 0 c41 0 60 4 61 13 2 20 8 -14 11 -65z m-331 10 c1
-22 1 -22 9 2 7 21 8 18 9 -18 l1 -44 -67 7 c-74 8 -95 15 -45 15 25 0 32 4
32 20 0 13 7 20 20 20 11 0 20 5 20 10 0 21 20 9 21 -12z m-2383 -40 c26 -3
26 -4 -5 -9 -32 -5 -33 -4 -32 25 1 23 3 25 6 9 3 -15 13 -23 31 -25z m-2138
-2 c0 -3 -4 -8 -10 -11 -5 -3 -10 -1 -10 4 0 6 5 11 10 11 6 0 10 -2 10 -4z
m2555 -1 c-23 -8 -85 -10 -85 -3 0 4 21 8 48 7 26 0 43 -2 37 -4z m405 -5 c0
-6 -28 -9 -67 -8 l-68 1 60 7 c33 4 63 7 68 8 4 1 7 -2 7 -8z m360 0 c0 -9
-118 -3 -129 6 -2 2 26 4 62 4 37 0 67 -4 67 -10z m340 0 c19 -6 9 -8 -37 -9
-36 -1 -63 3 -63 9 0 12 64 12 100 0z m3170 -110 c0 -95 -7 -102 -105 -99
l-65 2 0 82 0 82 30 -5 c17 -2 30 0 30 6 0 10 85 21 103 14 4 -2 7 -39 7 -82z
m-8670 -11 l0 -92 -46 7 c-26 3 -61 6 -79 6 l-31 0 -2 85 -1 85 80 0 79 0 0
-91z m360 4 l0 -83 -80 0 -80 0 0 75 c0 68 2 75 20 75 11 0 20 3 20 8 0 4 27
7 60 7 l60 0 0 -82z m354 56 c3 -17 6 -58 6 -90 l0 -59 -85 0 -85 0 0 90 0 90
79 0 79 0 6 -31z m3916 -56 l0 -88 -55 3 c-50 4 -55 6 -55 28 0 13 5 24 10 24
6 0 10 9 10 20 0 13 7 20 20 20 13 0 20 7 20 20 0 11 7 20 15 20 8 0 15 9 15
20 0 11 5 20 10 20 6 0 10 -36 10 -87z m2780 2 l0 -85 -80 0 -80 0 1 43 c1 23
5 53 9 67 l8 25 1 -25 c1 -24 4 -25 46 -22 36 3 45 8 45 23 0 12 7 19 20 19
13 0 20 7 20 20 0 11 2 20 5 20 3 0 5 -38 5 -85z m540 -4 l0 -89 -82 1 c-83 2
-83 2 -86 30 -3 24 0 27 27 27 24 0 31 4 31 20 0 17 7 20 39 20 38 0 39 1 46
40 12 69 25 43 25 -49z m360 4 l0 -84 -32 -6 c-42 -7 -128 0 -137 11 -3 5 -5
44 -3 87 l4 77 84 0 84 0 0 -85z m710 -5 l0 -90 -85 0 -85 0 0 90 0 90 85 0
85 0 0 -90z m344 55 c4 -20 6 -60 5 -90 -3 -62 -1 -61 -106 -49 l-53 7 0 83 0
84 74 0 74 0 6 -35z m-6669 -12 c18 -21 24 -40 25 -75 l0 -48 -51 0 c-49 0
-51 1 -44 23 15 50 17 67 6 67 -6 0 -11 9 -11 20 0 11 -6 21 -12 21 -7 1 3 5
22 9 19 4 36 8 38 9 2 0 14 -11 27 -26z m-3091 -5 c5 -10 7 -10 12 0 3 6 12
12 20 12 11 0 14 -16 14 -65 l0 -65 -85 0 -85 0 0 35 c0 24 5 35 14 35 8 0 18
9 21 20 4 14 15 20 36 20 16 0 29 5 29 10 0 14 17 12 24 -2z m1321 -65 c3 -13
12 -23 20 -23 8 0 15 -4 15 -10 0 -5 26 -11 58 -13 31 -2 22 -3 -20 -2 -51 2
-79 -1 -82 -8 -2 -7 -4 22 -4 63 1 41 3 62 5 45 2 -16 6 -40 8 -52z m881 -49
c-3 -9 -21 -14 -48 -13 -48 0 -135 16 -100 18 29 1 32 41 2 41 -11 0 -20 5
-20 10 0 6 9 10 20 10 11 0 20 -4 20 -10 0 -6 27 -10 60 -10 l60 0 2 43 c1 33
3 29 5 -17 2 -32 2 -65 -1 -72z m1762 64 l-3 -63 -60 -1 c-33 0 -43 1 -22 3
29 3 37 8 37 24 0 12 7 19 20 19 17 0 20 7 20 40 0 22 2 40 6 40 3 0 4 -28 2
-62z m709 30 c-3 -7 -5 -2 -5 12 0 14 2 19 5 13 2 -7 2 -19 0 -25z m576 -33
c9 -8 21 -15 28 -15 6 0 20 -10 31 -22 l20 -23 -47 -3 c-26 -2 -49 -2 -50 0
-2 2 -6 32 -9 68 -4 45 -3 57 3 38 5 -15 16 -34 24 -43z m487 25 c0 -22 -4
-40 -10 -40 -14 0 -12 -37 3 -43 6 -3 -13 -5 -43 -5 -30 0 -45 3 -32 5 14 3
22 12 22 24 0 12 7 19 20 19 17 0 20 7 20 40 0 22 5 40 10 40 6 0 10 -18 10
-40z m207 8 c-3 -7 -5 -2 -5 12 0 14 2 19 5 13 2 -7 2 -19 0 -25z m-4147 2 c0
-5 9 -10 20 -10 17 0 20 -7 20 -40 0 -33 -3 -40 -20 -40 -13 0 -20 7 -20 20 0
13 -7 20 -19 20 -29 0 -36 19 -15 40 21 21 34 25 34 10z m5653 -91 c-4 -4 -6
13 -3 39 l5 47 3 -39 c2 -21 0 -42 -5 -47z m-2912 41 c12 0 19 -7 19 -20 0
-17 7 -20 40 -20 38 0 40 2 42 33 l1 32 4 -32 c2 -18 8 -33 13 -33 5 0 11 15
13 33 4 31 4 31 5 -5 l2 -38 -85 0 -85 0 1 38 c0 20 3 31 6 25 2 -7 13 -13 24
-13z m2766 -37 c-3 -10 -5 -4 -5 12 0 17 2 24 5 18 2 -7 2 -21 0 -30z m-3009
-10 c-16 -2 -40 -2 -55 0 -16 2 -3 4 27 4 30 0 43 -2 28 -4z m1725 0 c-13 -2
-33 -2 -45 0 -13 2 -3 4 22 4 25 0 35 -2 23 -4z m-6154 -116 c-2 -78 -2 -79
-9 -32 -12 73 -12 127 0 120 6 -3 9 -43 9 -88z m1071 3 l0 -90 -80 0 -80 0 0
65 0 65 50 0 c38 0 50 4 50 15 0 9 10 15 26 15 14 0 23 4 19 10 -3 6 -1 10 4
10 7 0 11 -33 11 -90z m7950 -5 l0 -86 -87 3 -88 3 4 59 c3 60 17 86 45 86 9
0 16 5 16 10 0 6 25 10 55 10 l55 0 0 -85z m-1257 -7 l5 -68 -79 0 -79 0 0 50
c0 43 3 50 20 50 11 0 20 5 20 10 0 6 20 10 44 10 38 0 45 -3 49 -22 3 -14 5
-7 6 17 3 53 8 35 14 -47z m897 5 l0 -78 -85 3 -85 3 0 40 c0 32 3 39 20 39
11 0 20 5 20 10 0 6 27 10 60 10 57 0 60 1 60 25 0 14 2 25 5 25 3 0 5 -35 5
-77z m-8300 -3 c0 -49 -4 -70 -12 -72 -7 0 -46 -1 -85 -2 -69 -1 -73 0 -73 22
0 19 5 22 40 22 33 0 40 3 40 20 0 12 7 20 16 20 20 0 44 24 44 44 0 9 7 16
15 16 12 0 15 -14 15 -70z m1428 -37 l-3 -36 -80 2 c-44 1 -81 4 -83 5 -1 2 3
15 9 30 9 19 15 23 20 14 6 -9 13 -7 27 10 13 15 31 22 56 22 33 0 37 3 44 33
l7 32 3 -37 c2 -21 2 -54 0 -75z m-1591 55 c-3 -7 -5 -2 -5 12 0 14 2 19 5 13
2 -7 2 -19 0 -25z m9173 -28 l0 -60 -80 0 c-79 0 -80 0 -80 26 0 28 20 54 42
54 8 0 20 9 28 20 10 14 26 20 52 20 l38 0 0 -60z m360 -3 l0 -63 -85 -2 -85
-1 0 64 0 65 85 0 85 0 0 -63z m-8379 23 l59 0 0 -40 0 -40 -59 0 -58 0 -7 38
c-7 44 -7 73 1 55 3 -9 26 -13 64 -13z m1699 -30 c0 -43 -3 -50 -20 -50 -13 0
-20 7 -20 20 0 11 -4 20 -10 20 -5 0 -10 9 -10 20 0 13 7 20 20 20 11 0 20 5
20 10 0 6 5 10 10 10 6 0 10 -22 10 -50z m-3070 10 c0 -11 -4 -20 -10 -20 -5
0 -10 9 -10 20 0 11 5 20 10 20 6 0 10 -9 10 -20z m8184 -29 c-4 -22 -10 -41
-14 -41 -4 0 -3 20 3 45 13 55 20 53 11 -4z m-7604 -16 c0 -14 -4 -25 -10 -25
-5 0 -10 11 -10 25 0 14 5 25 10 25 6 0 10 -11 10 -25z m147 -7 c-3 -7 -5 -2
-5 12 0 14 2 19 5 13 2 -7 2 -19 0 -25z m-57 2 c0 -5 -18 -10 -40 -10 -22 0
-40 5 -40 10 0 6 18 10 40 10 22 0 40 -4 40 -10z m7553 -17 c-7 -2 -19 -2 -25
0 -7 3 -2 5 12 5 14 0 19 -2 13 -5z m-2336 -135 c-2 -13 -4 -3 -4 22 0 25 2
35 4 23 2 -13 2 -33 0 -45z m1715 -20 c-6 -6 -7 0 -4 19 5 21 7 23 10 9 2 -10
0 -22 -6 -28z"/>
<path d="M9248 9993 c6 -2 18 -2 25 0 6 3 1 5 -13 5 -14 0 -19 -2 -12 -5z"/>
<path d="M2088 9783 c6 -2 18 -2 25 0 6 3 1 5 -13 5 -14 0 -19 -2 -12 -5z"/>
<path d="M2190 9644 c0 -40 2 -44 25 -44 22 0 25 4 25 39 0 33 -3 39 -25 43
-24 5 -25 3 -25 -38z"/>
<path d="M4198 9117 c-137 -42 -226 -108 -304 -229 -55 -84 -72 -149 -56 -219
19 -82 16 -108 -19 -140 -42 -39 -77 -38 -116 4 -45 47 -53 69 -53 137 l0 62
-127 -4 c-119 -4 -133 -6 -194 -36 -65 -31 -152 -108 -190 -169 l-19 -30 52
-6 c86 -11 83 2 85 -330 l3 -292 45 -92 c69 -142 68 -148 -60 -286 -57 -63
-122 -126 -143 -141 -46 -32 -122 -46 -247 -46 -81 0 -95 3 -140 29 -58 33
-128 105 -152 156 -9 19 -20 35 -23 35 -17 0 -130 -131 -153 -175 -49 -99 -58
-139 -48 -225 13 -115 54 -197 141 -280 77 -73 83 -93 50 -147 -42 -70 -89
-66 -171 14 l-55 54 -51 -54 c-108 -114 -147 -262 -107 -412 19 -74 58 -143
89 -157 42 -19 59 -89 28 -115 -29 -22 -85 -44 -107 -41 -15 2 -26 -9 -45 -47
-23 -44 -26 -61 -26 -160 0 -108 1 -113 37 -186 68 -138 159 -215 302 -255 61
-17 88 -31 109 -54 31 -35 33 -49 12 -90 -21 -40 -72 -56 -132 -41 -25 7 -48
10 -50 7 -7 -7 -5 -153 3 -189 13 -62 45 -119 95 -172 102 -108 211 -152 349
-141 119 9 129 12 152 42 13 16 47 57 75 91 34 40 53 73 54 90 2 25 2 25 6 5
4 -21 11 -17 84 52 89 86 104 90 167 49 74 -48 67 -95 -25 -169 -65 -53 -84
-77 -70 -87 8 -6 6 -7 -5 -4 -18 6 -52 -25 -41 -38 5 -4 3 -5 -3 -2 -6 4 -37
-21 -68 -56 -111 -122 -134 -143 -172 -155 -21 -6 -42 -8 -47 -3 -4 4 -38 3
-75 -2 -37 -4 -82 -7 -101 -5 l-33 4 4 -60 c8 -124 102 -257 222 -316 55 -27
69 -30 148 -28 108 4 118 -4 130 -98 9 -78 50 -173 98 -228 43 -48 117 -99
132 -90 6 4 8 3 4 -4 -11 -19 133 -50 174 -37 18 6 19 13 14 93 -8 102 10 182
52 231 35 42 72 41 118 -2 33 -31 34 -35 26 -73 -23 -97 -4 -233 46 -323 39
-73 123 -161 201 -212 207 -135 476 -95 671 97 123 122 184 283 202 534 12
170 13 4415 0 4590 -10 150 -42 242 -123 360 -65 93 -136 148 -252 196 -80 33
-101 37 -195 41 -88 3 -117 -1 -182 -20z m181 -167 c63 -18 139 -108 155 -185
22 -103 -117 -247 -225 -232 -116 15 -192 100 -192 212 0 58 22 122 57 168 29
38 134 58 205 37z m-688 -581 c42 -14 83 -51 117 -104 34 -53 36 -141 4 -206
l-22 -43 29 -31 c16 -16 41 -52 55 -79 14 -27 26 -44 26 -37 0 17 41 13 79 -7
35 -19 71 -72 71 -105 0 -11 -15 -34 -34 -53 -48 -48 -92 -47 -135 1 -17 20
-31 47 -31 60 0 16 -5 23 -17 23 -51 -4 -179 83 -185 125 -2 17 -12 23 -46 29
-61 10 -108 42 -147 101 -31 45 -35 59 -35 115 0 153 133 257 271 211z m804
-124 c130 -111 137 -254 18 -373 l-53 -54 2 -607 3 -608 75 -82 c41 -45 121
-132 177 -192 56 -61 104 -122 108 -136 7 -31 -31 -76 -79 -93 -30 -10 -32 -9
-161 124 -132 137 -272 294 -289 324 -5 9 -11 286 -13 642 -3 620 -3 625 -24
640 -120 87 -161 184 -129 301 13 48 79 121 132 148 33 16 58 20 109 18 64 -2
69 -5 124 -52z m285 -655 c11 -11 20 -27 20 -35 0 -29 -29 -72 -52 -79 -67
-18 -108 3 -108 55 0 65 94 105 140 59z m-912 -56 c80 -55 107 -106 107 -204
0 -96 -28 -151 -98 -195 l-48 -30 5 -119 c4 -66 6 -183 6 -260 l0 -141 273
-275 c150 -151 292 -300 315 -332 l43 -56 6 -474 6 -473 -24 -27 c-13 -15 -35
-30 -49 -33 -32 -7 -87 26 -100 61 -7 16 -10 194 -10 456 l1 430 -63 67 c-34
36 -178 184 -319 328 l-256 262 -7 62 c-3 34 -6 166 -6 294 l0 232 -37 24
c-50 32 -93 113 -100 188 -7 76 23 147 85 201 54 48 89 60 160 56 42 -2 64
-11 110 -42z m-640 -463 c43 -22 112 -93 136 -139 36 -71 12 -186 -54 -253
-25 -25 -52 -50 -60 -55 -13 -8 -15 -41 -12 -221 l3 -213 228 0 228 0 47 -41
c65 -57 74 -81 82 -205 l7 -108 81 -75 c137 -127 212 -206 225 -239 27 -64 -6
-102 -86 -102 -30 0 -48 12 -134 92 -55 50 -115 112 -134 137 -18 25 -58 66
-88 91 -42 34 -55 51 -54 70 0 14 0 62 -1 108 l-2 82 -259 0 -259 0 -30 34
-29 33 -7 274 c-6 237 -9 275 -23 284 -43 27 -98 84 -114 120 -24 53 -24 147
0 200 20 45 74 101 124 127 45 24 137 23 185 -1z m-518 -536 c35 -18 94 -89
115 -138 19 -45 19 -107 1 -150 -12 -29 -79 -99 -117 -123 -11 -7 -13 -39 -11
-175 l3 -166 117 4 c64 2 194 1 288 -2 l171 -7 89 -98 c49 -54 156 -170 237
-259 l148 -160 -4 -343 c-3 -189 -9 -379 -15 -422 l-11 -79 39 -39 c58 -60 73
-99 67 -175 -7 -90 -44 -149 -116 -185 -90 -46 -177 -32 -247 38 -52 51 -68
98 -61 179 7 100 60 170 152 205 29 11 41 73 30 153 -3 29 -6 176 -6 327 l1
276 -68 74 c-79 88 -232 240 -232 232 0 -4 -18 14 -40 38 -22 24 -40 48 -40
53 0 6 -84 7 -207 3 -115 -3 -259 -2 -322 2 -158 10 -149 -7 -157 296 l-7 239
-41 41 c-63 63 -79 130 -51 224 18 59 60 112 107 135 42 21 149 22 188 2z
m260 -1166 c190 -43 200 -356 13 -408 -143 -40 -266 57 -266 210 0 96 53 165
148 195 50 16 50 16 105 3z m1128 -135 c74 -48 26 -164 -68 -164 -29 0 -43 6
-59 25 -77 99 22 207 127 139z m271 -518 c43 -23 108 -100 122 -145 16 -55 -1
-160 -36 -213 -25 -38 -26 -40 -15 -139 5 -56 10 -162 10 -236 l0 -135 53 -52
c109 -108 103 -250 -14 -348 -116 -97 -264 -64 -333 74 -33 65 -35 161 -7 224
18 39 65 84 104 97 14 5 17 20 17 95 0 49 -3 143 -7 210 l-6 121 -38 6 c-71
12 -159 138 -159 226 0 38 27 116 53 151 48 65 186 100 256 64z m-1201 -316
c73 -45 60 -135 -24 -159 -40 -11 -70 2 -94 41 -25 40 -19 72 18 111 31 32 55
34 100 7z"/>
<path d="M4292 8813 c-13 -5 -42 -54 -42 -71 0 -20 50 -62 74 -62 29 0 66 42
66 75 0 42 -56 75 -98 58z"/>
<path d="M3604 8229 c-30 -11 -50 -63 -36 -95 11 -22 47 -44 73 -44 16 0 59
51 59 70 0 23 -35 66 -58 72 -10 3 -27 2 -38 -3z"/>
<path d="M4301 8104 c-28 -36 -27 -79 4 -109 74 -75 182 31 110 109 -33 36
-86 36 -114 0z"/>
<path d="M3681 7384 c-28 -36 -27 -79 4 -109 34 -35 86 -34 114 1 45 57 11
134 -59 134 -30 0 -43 -6 -59 -26z"/>
<path d="M3081 6904 c-46 -59 -11 -134 62 -134 63 0 102 62 73 118 -17 34 -33
42 -81 42 -24 0 -39 -7 -54 -26z"/>
<path d="M2583 6398 c-12 -6 -28 -26 -34 -45 -16 -50 12 -87 69 -91 48 -4 72
22 72 75 0 59 -51 88 -107 61z"/>
<path d="M3575 4265 c-48 -47 -20 -125 44 -125 63 0 94 90 45 129 -35 27 -59
26 -89 -4z"/>
<path d="M2880 5210 c-26 -26 -25 -60 1 -94 25 -31 38 -32 73 -5 19 15 26 30
26 54 0 61 -58 87 -100 45z"/>
<path d="M4231 4551 c-30 -41 -27 -85 5 -110 41 -32 80 -28 104 12 25 41 25
68 -1 101 -30 38 -80 36 -108 -3z"/>
<path d="M4305 3677 c-8 -13 -18 -37 -21 -54 -8 -41 30 -83 75 -83 36 0 71 40
71 80 0 69 -90 110 -125 57z"/>
<path d="M5600 9133 c-50 -8 -171 -58 -222 -93 -58 -39 -137 -131 -172 -200
-59 -116 -56 -23 -54 -1475 0 -731 0 -1818 -1 -2415 -3 -1254 -5 -1213 78
-1385 57 -116 116 -182 227 -251 156 -98 379 -99 540 -3 144 86 224 193 265
359 19 76 20 91 9 147 -19 100 1 143 69 143 80 0 127 -107 119 -272 l-4 -88
46 0 c56 0 113 18 103 33 -3 6 -1 7 5 3 21 -13 97 30 152 86 66 66 107 145
116 224 7 64 28 120 48 127 6 3 30 -1 51 -9 43 -15 77 -17 113 -8 16 5 22 14
22 35 0 26 3 29 34 29 19 0 36 -5 38 -11 6 -18 91 55 130 112 44 64 63 114 71
190 l7 55 -140 -4 -140 -5 -37 39 c-21 22 -65 68 -99 104 -33 36 -105 107
-159 158 -111 104 -135 135 -135 174 0 34 45 85 82 94 24 5 37 -2 98 -62 63
-61 76 -68 71 -40 -1 5 5 4 13 -3 9 -7 14 -17 11 -21 -3 -4 2 -13 10 -20 8 -7
12 -16 9 -21 -3 -5 0 -8 7 -7 7 2 14 -4 14 -12 0 -8 7 -14 14 -12 7 1 10 -2 7
-7 -7 -11 19 -33 28 -23 4 4 6 2 4 -5 -6 -23 71 -102 111 -113 83 -22 300 -9
309 18 2 7 13 12 25 12 33 0 119 53 157 96 18 21 47 68 63 104 25 53 31 82 35
159 4 86 3 94 -13 88 -9 -4 -41 -10 -70 -13 -52 -6 -53 -6 -79 32 -50 73 -25
130 64 149 59 13 137 45 152 62 9 12 9 15 1 9 -19 -11 -16 -1 4 15 14 12 16
12 9 0 -6 -9 -5 -12 5 -9 8 3 13 11 12 17 -2 6 0 10 5 10 22 -4 34 6 77 63 25
33 44 67 41 75 -3 7 -1 13 4 13 17 0 40 102 40 176 0 76 -29 178 -56 200 -8 6
-14 16 -14 22 0 6 -3 12 -8 14 -4 2 -27 27 -51 55 l-44 53 27 34 c37 49 83
150 97 212 10 43 9 65 -6 130 -9 44 -28 101 -42 127 -24 49 -104 137 -123 137
-5 0 -17 -12 -26 -26 -24 -35 -88 -66 -131 -62 -40 3 -67 31 -83 87 -9 33 -7
35 74 120 62 65 88 100 103 141 61 165 28 310 -106 461 l-37 42 -84 -86 c-70
-74 -91 -90 -134 -102 -57 -16 -246 -34 -246 -24 0 3 -21 12 -46 19 -90 25
-248 176 -290 276 -8 19 -16 70 -17 113 -2 72 0 80 28 115 54 69 56 74 47 197
-10 139 -10 435 0 445 4 4 31 11 59 15 28 5 54 10 56 13 21 20 -109 152 -195
199 -70 38 -171 58 -249 50 l-63 -6 0 -56 c0 -122 -37 -181 -115 -181 -73 0
-106 48 -90 133 17 88 -1 201 -35 222 -5 3 -17 21 -26 40 -22 47 -87 120 -138
153 -49 33 -154 78 -216 91 -44 10 -169 12 -220 4z m237 -190 c63 -36 133
-141 133 -200 -1 -73 -94 -185 -165 -199 -51 -9 -121 2 -161 26 -42 27 -91
100 -99 151 -13 75 57 200 128 229 39 15 130 11 164 -7z m930 -325 c-3 -8 -6
-5 -6 6 -1 11 2 17 5 13 3 -3 4 -12 1 -19z m-248 -253 c42 -21 109 -102 121
-144 19 -67 12 -110 -25 -171 -42 -69 -62 -83 -138 -100 -52 -12 -57 -15 -57
-40 0 -27 0 -27 -91 -35 -50 -3 -93 -4 -97 -1 -3 4 1 19 10 34 58 98 56 86 24
146 -40 75 -42 153 -4 217 24 41 78 88 118 102 31 11 112 6 139 -8z m-750 -71
c45 -9 130 -89 157 -149 53 -112 13 -235 -99 -305 l-29 -18 2 -639 1 -638 -28
-36 c-168 -216 -337 -393 -390 -408 -29 -9 -35 -6 -63 25 -39 45 -47 77 -26
109 9 14 86 101 171 195 l154 170 -6 614 -6 615 -56 58 c-109 113 -109 229 1
342 24 24 57 50 73 57 33 14 94 18 144 8z m418 -440 c32 -20 48 -78 33 -115
-17 -40 -60 -69 -103 -69 -70 0 -114 100 -69 157 39 49 88 59 139 27z m260
-313 c84 -54 117 -110 117 -200 1 -83 -31 -151 -92 -198 l-41 -31 -4 -285 -3
-284 -95 -104 c-52 -57 -197 -209 -323 -338 l-228 -234 3 -459 4 -460 -24 -19
c-54 -44 -115 -35 -143 21 -16 32 -18 78 -18 513 l0 479 218 221 c119 122 262
268 317 326 l100 104 5 258 c5 236 4 260 -12 265 -26 8 -88 82 -110 132 -15
34 -19 60 -16 112 4 84 36 136 111 185 44 29 61 34 112 34 53 1 67 -4 122 -38z
m564 -451 c45 -13 123 -93 151 -157 43 -96 3 -222 -89 -283 l-53 -34 0 -272
c0 -314 2 -307 -89 -324 -29 -5 -111 -10 -181 -10 -70 0 -168 -3 -218 -6 l-92
-7 0 -108 0 -109 -172 -174 c-145 -146 -180 -176 -217 -187 -44 -13 -44 -13
-72 21 -16 19 -29 41 -29 50 0 41 174 246 256 302 18 13 37 30 40 38 4 8 10
67 14 130 8 130 21 164 75 206 l35 27 240 1 240 1 0 218 c0 119 -4 217 -8 217
-16 0 -93 72 -108 102 -9 17 -18 63 -21 103 -5 63 -2 79 19 127 47 103 169
158 279 128z m549 -560 c70 -36 120 -121 120 -205 0 -68 -23 -118 -79 -168
l-41 -37 0 -234 c0 -254 0 -255 -57 -277 -13 -5 -156 -9 -316 -9 l-292 0 -184
-190 -184 -190 2 -303 c2 -344 7 -326 -82 -345 -51 -10 -64 -4 -88 39 -6 13
-10 135 -10 340 0 263 3 325 14 343 16 24 413 452 439 474 12 10 88 15 295 19
l278 6 2 159 3 159 -59 57 c-77 76 -95 135 -70 227 16 58 44 92 102 125 65 37
146 41 207 10z m388 -615 c-3 -3 -9 2 -12 12 -6 14 -5 15 5 6 7 -7 10 -15 7
-18z m-671 -571 c170 -99 122 -350 -77 -395 -52 -12 -106 7 -157 54 -54 50
-70 79 -78 143 -8 60 7 103 56 159 70 79 164 93 256 39z m-1170 -109 c26 -18
43 -64 33 -90 -11 -28 -50 -62 -81 -70 -41 -10 -89 36 -89 84 0 69 82 115 137
76z m1560 -361 c-3 -3 -12 -4 -19 -1 -8 3 -5 6 6 6 11 1 17 -2 13 -5z m-1750
-169 c170 -85 145 -344 -40 -414 l-27 -11 0 -218 0 -218 44 -46 c56 -58 90
-144 81 -202 -9 -56 -47 -118 -95 -156 -33 -26 -52 -33 -103 -37 -163 -13
-279 132 -233 291 17 58 71 130 105 141 16 5 18 27 24 247 5 228 4 244 -14
269 -94 132 -70 284 56 361 46 28 138 24 202 -7z m667 -289 c105 -72 146 -198
97 -294 -32 -63 -101 -119 -157 -128 -134 -20 -256 88 -258 226 0 71 20 109
97 186 62 61 62 61 112 56 37 -4 65 -15 109 -46z m454 -32 c17 -12 22 -25 22
-60 0 -54 -26 -84 -71 -84 -37 0 -89 28 -90 50 -3 41 4 77 18 93 20 22 90 23
121 1z m259 -101 c-2 -16 -4 -3 -4 27 0 30 2 43 4 28 2 -16 2 -40 0 -55z
m-680 -600 c-3 -10 -5 -4 -5 12 0 17 2 24 5 18 2 -7 2 -21 0 -30z"/>
<path d="M5701 8794 c-27 -35 -26 -59 4 -89 45 -46 108 -19 108 45 0 66 -73
94 -112 44z"/>
<path d="M6398 8213 c-25 -29 -29 -53 -13 -82 24 -47 69 -55 103 -18 28 29 28
57 1 91 -24 31 -68 35 -91 9z"/>
<path d="M5656 8109 c-41 -48 -29 -110 25 -133 40 -17 64 -11 89 22 35 44 25
104 -21 127 -42 22 -64 18 -93 -16z"/>
<path d="M6279 7401 c-31 -25 -33 -92 -4 -120 52 -50 135 -16 135 56 0 69 -78
107 -131 64z"/>
<path d="M6874 6899 c-20 -40 -11 -93 19 -114 50 -35 116 -7 132 56 5 19 0 34
-20 57 -23 27 -34 32 -71 32 -39 0 -45 -3 -60 -31z"/>
<path d="M7412 6377 c-12 -13 -22 -35 -22 -48 0 -31 48 -79 79 -79 31 0 71 43
71 78 0 65 -83 97 -128 49z"/>
<path d="M7130 5212 c-47 -38 -16 -122 44 -122 13 0 32 10 44 23 61 64 -20
154 -88 99z"/>
<path d="M5783 4580 c-45 -18 -55 -72 -22 -114 37 -46 110 -26 124 35 12 48
-53 98 -102 79z"/>
<path d="M5702 3684 c-29 -20 -31 -85 -2 -114 30 -30 83 -27 110 7 55 70 -34
159 -108 107z"/>
<path d="M6436 4271 c-33 -36 -21 -104 21 -119 34 -11 66 -1 87 30 23 33 20
64 -10 87 -33 26 -76 27 -98 2z"/>
<path d="M3066 8365 c-3 -9 -5 -65 -4 -123 l1 -107 7 120 c4 66 6 121 5 123
-2 2 -5 -4 -9 -13z"/>
<path d="M7006 8133 c-3 -4 -3 -77 0 -162 l7 -156 -47 -51 c-25 -29 -46 -59
-46 -68 0 -53 75 -153 140 -186 51 -26 101 -33 176 -25 81 8 124 42 166 130
24 51 28 73 28 141 0 75 -3 88 -40 160 -21 44 -61 101 -87 127 -46 48 -47 49
-92 41 -26 -5 -73 -9 -106 -9 -58 0 -61 1 -76 32 -9 18 -19 29 -23 26z"/>
<path d="M2808 8073 c-51 -39 -70 -63 -105 -128 -43 -80 -43 -80 -40 -176 2
-84 6 -103 32 -154 19 -38 46 -72 75 -93 44 -34 46 -34 126 -29 44 2 94 12
111 20 16 9 58 48 93 87 71 80 73 95 16 158 -44 49 -49 67 -49 197 0 60 -2 90
-5 65 -3 -35 -6 -41 -12 -25 -8 18 -9 17 -9 -7 -1 -14 5 -28 12 -31 6 -2 9 -8
5 -12 -9 -10 -38 19 -38 39 0 9 -8 16 -20 16 -13 0 -20 7 -20 20 0 11 -4 20
-10 20 -5 0 -10 10 -10 21 0 17 -5 20 -25 17 -21 -4 -25 -1 -25 18 0 37 -31
30 -102 -23z"/>
<path d="M7901 4864 c0 -11 3 -14 6 -6 3 7 2 16 -1 19 -3 4 -6 -2 -5 -13z"/>
<path d="M1112 8570 c0 -19 2 -27 5 -17 2 9 2 25 0 35 -3 9 -5 1 -5 -18z"/>
<path d="M532 8020 c0 -14 2 -19 5 -12 2 6 2 18 0 25 -3 6 -5 1 -5 -13z"/>
<path d="M688 7903 c6 -2 18 -2 25 0 6 3 1 5 -13 5 -14 0 -19 -2 -12 -5z"/>
<path d="M760 7780 c0 -13 7 -20 20 -20 13 0 20 7 20 20 0 13 -7 20 -20 20
-13 0 -20 -7 -20 -20z"/>
<path d="M1112 7780 c0 -14 2 -19 5 -12 2 6 2 18 0 25 -3 6 -5 1 -5 -13z"/>
<path d="M1858 7853 c7 -3 16 -2 19 1 4 3 -2 6 -13 5 -11 0 -14 -3 -6 -6z"/>
<path d="M640 7633 c0 -25 0 -26 20 -8 11 10 20 22 20 27 0 4 -9 8 -20 8 -15
0 -20 -7 -20 -27z"/>
<path d="M408 7353 c6 -2 18 -2 25 0 6 3 1 5 -13 5 -14 0 -19 -2 -12 -5z"/>
<path d="M752 7020 c0 -14 2 -19 5 -12 2 6 2 18 0 25 -3 6 -5 1 -5 -13z"/>
<path d="M9248 6983 c6 -2 18 -2 25 0 6 3 1 5 -13 5 -14 0 -19 -2 -12 -5z"/>
<path d="M9592 6220 c0 -14 2 -19 5 -12 2 6 2 18 0 25 -3 6 -5 1 -5 -13z"/>
<path d="M9232 6220 c0 -14 2 -19 5 -12 2 6 2 18 0 25 -3 6 -5 1 -5 -13z"/>
<path d="M9488 4833 c6 -2 18 -2 25 0 6 3 1 5 -13 5 -14 0 -19 -2 -12 -5z"/>
<path d="M8872 4740 c0 -14 2 -19 5 -12 2 6 2 18 0 25 -3 6 -5 1 -5 -13z"/>
<path d="M9585 4390 c3 -5 8 -10 11 -10 2 0 4 5 4 10 0 6 -5 10 -11 10 -5 0
-7 -4 -4 -10z"/>
<path d="M171 3534 c0 -11 3 -14 6 -6 3 7 2 16 -1 19 -3 4 -6 -2 -5 -13z"/>
<path d="M9946 2613 c10 -40 14 -41 14 -5 0 18 -5 32 -10 32 -6 0 -8 -11 -4
-27z"/>
<path d="M2686 2060 c-52 -16 -106 -82 -106 -130 0 -19 6 -20 104 -20 56 0
131 -3 165 -6 l61 -7 0 27 c0 94 -123 168 -224 136z"/>
<path d="M4770 2028 c-30 -16 -54 -38 -74 -70 -25 -41 -29 -58 -28 -116 0 -80
22 -131 78 -186 61 -60 128 -59 195 1 91 82 92 262 3 345 -56 52 -107 60 -174
26z"/>
<path d="M6472 1740 c-80 -49 -58 -149 38 -165 52 -9 110 9 155 48 32 28 39
41 45 85 l6 52 -105 0 c-88 0 -111 -3 -139 -20z"/>
<path d="M523 1595 c0 -22 2 -30 4 -17 2 12 2 30 0 40 -3 9 -5 -1 -4 -23z"/>
<path d="M9968 1683 c6 -2 18 -2 25 0 6 3 1 5 -13 5 -14 0 -19 -2 -12 -5z"/>
<path d="M9231 1174 c0 -11 3 -14 6 -6 3 7 2 16 -1 19 -3 4 -6 -2 -5 -13z"/>
<path d="M9002 1180 c0 -14 2 -19 5 -12 2 6 2 18 0 25 -3 6 -5 1 -5 -13z"/>
<path d="M6858 783 c12 -2 32 -2 45 0 12 2 2 4 -23 4 -25 0 -35 -2 -22 -4z"/>
<path d="M8652 500 c0 -14 2 -19 5 -12 2 6 2 18 0 25 -3 6 -5 1 -5 -13z"/>
<path d="M8523 393 c9 -2 23 -2 30 0 6 3 -1 5 -18 5 -16 0 -22 -2 -12 -5z"/>
<path d="M9942 420 c0 -14 2 -19 5 -12 2 6 2 18 0 25 -3 6 -5 1 -5 -13z"/>
<path d="M522 250 c0 -19 2 -27 5 -17 2 9 2 25 0 35 -3 9 -5 1 -5 -18z"/>
<path d="M1961 214 c0 -11 3 -14 6 -6 3 7 2 16 -1 19 -3 4 -6 -2 -5 -13z"/>
<path d="M3062 20 c0 -14 2 -19 5 -12 2 6 2 18 0 25 -3 6 -5 1 -5 -13z"/>
</g>
</svg>
