<svg xmlns="http://www.w3.org/2000/svg" preserveAspectRatio="xMidYMid meet" viewBox="196.608 124.928 620.544 616.448" version="1.0" style="max-height: 500px" width="620.544" height="616.448">
  <g style="" stroke="none" fill="#ffffff" transform="matrix(0.099532, 0, 0, -0.096019, -1.199063, 1013.212341)">
    <path d="M9248 9993 c6 -2 18 -2 25 0 6 3 1 5 -13 5 -14 0 -19 -2 -12 -5z"/>
    <path d="M2088 9783 c6 -2 18 -2 25 0 6 3 1 5 -13 5 -14 0 -19 -2 -12 -5z"/>
    <path d="M2190 9644 c0 -40 2 -44 25 -44 22 0 25 4 25 39 0 33 -3 39 -25 43&#10;-24 5 -25 3 -25 -38z"/>
    <path d="M4198 9117 c-137 -42 -226 -108 -304 -229 -55 -84 -72 -149 -56 -219&#10;19 -82 16 -108 -19 -140 -42 -39 -77 -38 -116 4 -45 47 -53 69 -53 137 l0 62&#10;-127 -4 c-119 -4 -133 -6 -194 -36 -65 -31 -152 -108 -190 -169 l-19 -30 52&#10;-6 c86 -11 83 2 85 -330 l3 -292 45 -92 c69 -142 68 -148 -60 -286 -57 -63&#10;-122 -126 -143 -141 -46 -32 -122 -46 -247 -46 -81 0 -95 3 -140 29 -58 33&#10;-128 105 -152 156 -9 19 -20 35 -23 35 -17 0 -130 -131 -153 -175 -49 -99 -58&#10;-139 -48 -225 13 -115 54 -197 141 -280 77 -73 83 -93 50 -147 -42 -70 -89&#10;-66 -171 14 l-55 54 -51 -54 c-108 -114 -147 -262 -107 -412 19 -74 58 -143&#10;89 -157 42 -19 59 -89 28 -115 -29 -22 -85 -44 -107 -41 -15 2 -26 -9 -45 -47&#10;-23 -44 -26 -61 -26 -160 0 -108 1 -113 37 -186 68 -138 159 -215 302 -255 61&#10;-17 88 -31 109 -54 31 -35 33 -49 12 -90 -21 -40 -72 -56 -132 -41 -25 7 -48&#10;10 -50 7 -7 -7 -5 -153 3 -189 13 -62 45 -119 95 -172 102 -108 211 -152 349&#10;-141 119 9 129 12 152 42 13 16 47 57 75 91 34 40 53 73 54 90 2 25 2 25 6 5&#10;4 -21 11 -17 84 52 89 86 104 90 167 49 74 -48 67 -95 -25 -169 -65 -53 -84&#10;-77 -70 -87 8 -6 6 -7 -5 -4 -18 6 -52 -25 -41 -38 5 -4 3 -5 -3 -2 -6 4 -37&#10;-21 -68 -56 -111 -122 -134 -143 -172 -155 -21 -6 -42 -8 -47 -3 -4 4 -38 3&#10;-75 -2 -37 -4 -82 -7 -101 -5 l-33 4 4 -60 c8 -124 102 -257 222 -316 55 -27&#10;69 -30 148 -28 108 4 118 -4 130 -98 9 -78 50 -173 98 -228 43 -48 117 -99&#10;132 -90 6 4 8 3 4 -4 -11 -19 133 -50 174 -37 18 6 19 13 14 93 -8 102 10 182&#10;52 231 35 42 72 41 118 -2 33 -31 34 -35 26 -73 -23 -97 -4 -233 46 -323 39&#10;-73 123 -161 201 -212 207 -135 476 -95 671 97 123 122 184 283 202 534 12&#10;170 13 4415 0 4590 -10 150 -42 242 -123 360 -65 93 -136 148 -252 196 -80 33&#10;-101 37 -195 41 -88 3 -117 -1 -182 -20z m181 -167 c63 -18 139 -108 155 -185&#10;22 -103 -117 -247 -225 -232 -116 15 -192 100 -192 212 0 58 22 122 57 168 29&#10;38 134 58 205 37z m-688 -581 c42 -14 83 -51 117 -104 34 -53 36 -141 4 -206&#10;l-22 -43 29 -31 c16 -16 41 -52 55 -79 14 -27 26 -44 26 -37 0 17 41 13 79 -7&#10;35 -19 71 -72 71 -105 0 -11 -15 -34 -34 -53 -48 -48 -92 -47 -135 1 -17 20&#10;-31 47 -31 60 0 16 -5 23 -17 23 -51 -4 -179 83 -185 125 -2 17 -12 23 -46 29&#10;-61 10 -108 42 -147 101 -31 45 -35 59 -35 115 0 153 133 257 271 211z m804&#10;-124 c130 -111 137 -254 18 -373 l-53 -54 2 -607 3 -608 75 -82 c41 -45 121&#10;-132 177 -192 56 -61 104 -122 108 -136 7 -31 -31 -76 -79 -93 -30 -10 -32 -9&#10;-161 124 -132 137 -272 294 -289 324 -5 9 -11 286 -13 642 -3 620 -3 625 -24&#10;640 -120 87 -161 184 -129 301 13 48 79 121 132 148 33 16 58 20 109 18 64 -2&#10;69 -5 124 -52z m285 -655 c11 -11 20 -27 20 -35 0 -29 -29 -72 -52 -79 -67&#10;-18 -108 3 -108 55 0 65 94 105 140 59z m-912 -56 c80 -55 107 -106 107 -204&#10;0 -96 -28 -151 -98 -195 l-48 -30 5 -119 c4 -66 6 -183 6 -260 l0 -141 273&#10;-275 c150 -151 292 -300 315 -332 l43 -56 6 -474 6 -473 -24 -27 c-13 -15 -35&#10;-30 -49 -33 -32 -7 -87 26 -100 61 -7 16 -10 194 -10 456 l1 430 -63 67 c-34&#10;36 -178 184 -319 328 l-256 262 -7 62 c-3 34 -6 166 -6 294 l0 232 -37 24&#10;c-50 32 -93 113 -100 188 -7 76 23 147 85 201 54 48 89 60 160 56 42 -2 64&#10;-11 110 -42z m-640 -463 c43 -22 112 -93 136 -139 36 -71 12 -186 -54 -253&#10;-25 -25 -52 -50 -60 -55 -13 -8 -15 -41 -12 -221 l3 -213 228 0 228 0 47 -41&#10;c65 -57 74 -81 82 -205 l7 -108 81 -75 c137 -127 212 -206 225 -239 27 -64 -6&#10;-102 -86 -102 -30 0 -48 12 -134 92 -55 50 -115 112 -134 137 -18 25 -58 66&#10;-88 91 -42 34 -55 51 -54 70 0 14 0 62 -1 108 l-2 82 -259 0 -259 0 -30 34&#10;-29 33 -7 274 c-6 237 -9 275 -23 284 -43 27 -98 84 -114 120 -24 53 -24 147&#10;0 200 20 45 74 101 124 127 45 24 137 23 185 -1z m-518 -536 c35 -18 94 -89&#10;115 -138 19 -45 19 -107 1 -150 -12 -29 -79 -99 -117 -123 -11 -7 -13 -39 -11&#10;-175 l3 -166 117 4 c64 2 194 1 288 -2 l171 -7 89 -98 c49 -54 156 -170 237&#10;-259 l148 -160 -4 -343 c-3 -189 -9 -379 -15 -422 l-11 -79 39 -39 c58 -60 73&#10;-99 67 -175 -7 -90 -44 -149 -116 -185 -90 -46 -177 -32 -247 38 -52 51 -68&#10;98 -61 179 7 100 60 170 152 205 29 11 41 73 30 153 -3 29 -6 176 -6 327 l1&#10;276 -68 74 c-79 88 -232 240 -232 232 0 -4 -18 14 -40 38 -22 24 -40 48 -40&#10;53 0 6 -84 7 -207 3 -115 -3 -259 -2 -322 2 -158 10 -149 -7 -157 296 l-7 239&#10;-41 41 c-63 63 -79 130 -51 224 18 59 60 112 107 135 42 21 149 22 188 2z&#10;m260 -1166 c190 -43 200 -356 13 -408 -143 -40 -266 57 -266 210 0 96 53 165&#10;148 195 50 16 50 16 105 3z m1128 -135 c74 -48 26 -164 -68 -164 -29 0 -43 6&#10;-59 25 -77 99 22 207 127 139z m271 -518 c43 -23 108 -100 122 -145 16 -55 -1&#10;-160 -36 -213 -25 -38 -26 -40 -15 -139 5 -56 10 -162 10 -236 l0 -135 53 -52&#10;c109 -108 103 -250 -14 -348 -116 -97 -264 -64 -333 74 -33 65 -35 161 -7 224&#10;18 39 65 84 104 97 14 5 17 20 17 95 0 49 -3 143 -7 210 l-6 121 -38 6 c-71&#10;12 -159 138 -159 226 0 38 27 116 53 151 48 65 186 100 256 64z m-1201 -316&#10;c73 -45 60 -135 -24 -159 -40 -11 -70 2 -94 41 -25 40 -19 72 18 111 31 32 55&#10;34 100 7z"/>
    <path d="M4292 8813 c-13 -5 -42 -54 -42 -71 0 -20 50 -62 74 -62 29 0 66 42&#10;66 75 0 42 -56 75 -98 58z"/>
    <path d="M3604 8229 c-30 -11 -50 -63 -36 -95 11 -22 47 -44 73 -44 16 0 59&#10;51 59 70 0 23 -35 66 -58 72 -10 3 -27 2 -38 -3z"/>
    <path d="M4301 8104 c-28 -36 -27 -79 4 -109 74 -75 182 31 110 109 -33 36&#10;-86 36 -114 0z"/>
    <path d="M3681 7384 c-28 -36 -27 -79 4 -109 34 -35 86 -34 114 1 45 57 11&#10;134 -59 134 -30 0 -43 -6 -59 -26z"/>
    <path d="M3081 6904 c-46 -59 -11 -134 62 -134 63 0 102 62 73 118 -17 34 -33&#10;42 -81 42 -24 0 -39 -7 -54 -26z"/>
    <path d="M2583 6398 c-12 -6 -28 -26 -34 -45 -16 -50 12 -87 69 -91 48 -4 72&#10;22 72 75 0 59 -51 88 -107 61z"/>
    <path d="M3575 4265 c-48 -47 -20 -125 44 -125 63 0 94 90 45 129 -35 27 -59&#10;26 -89 -4z"/>
    <path d="M2880 5210 c-26 -26 -25 -60 1 -94 25 -31 38 -32 73 -5 19 15 26 30&#10;26 54 0 61 -58 87 -100 45z"/>
    <path d="M4231 4551 c-30 -41 -27 -85 5 -110 41 -32 80 -28 104 12 25 41 25&#10;68 -1 101 -30 38 -80 36 -108 -3z"/>
    <path d="M4305 3677 c-8 -13 -18 -37 -21 -54 -8 -41 30 -83 75 -83 36 0 71 40&#10;71 80 0 69 -90 110 -125 57z"/>
    <path d="M5600 9133 c-50 -8 -171 -58 -222 -93 -58 -39 -137 -131 -172 -200&#10;-59 -116 -56 -23 -54 -1475 0 -731 0 -1818 -1 -2415 -3 -1254 -5 -1213 78&#10;-1385 57 -116 116 -182 227 -251 156 -98 379 -99 540 -3 144 86 224 193 265&#10;359 19 76 20 91 9 147 -19 100 1 143 69 143 80 0 127 -107 119 -272 l-4 -88&#10;46 0 c56 0 113 18 103 33 -3 6 -1 7 5 3 21 -13 97 30 152 86 66 66 107 145&#10;116 224 7 64 28 120 48 127 6 3 30 -1 51 -9 43 -15 77 -17 113 -8 16 5 22 14&#10;22 35 0 26 3 29 34 29 19 0 36 -5 38 -11 6 -18 91 55 130 112 44 64 63 114 71&#10;190 l7 55 -140 -4 -140 -5 -37 39 c-21 22 -65 68 -99 104 -33 36 -105 107&#10;-159 158 -111 104 -135 135 -135 174 0 34 45 85 82 94 24 5 37 -2 98 -62 63&#10;-61 76 -68 71 -40 -1 5 5 4 13 -3 9 -7 14 -17 11 -21 -3 -4 2 -13 10 -20 8 -7&#10;12 -16 9 -21 -3 -5 0 -8 7 -7 7 2 14 -4 14 -12 0 -8 7 -14 14 -12 7 1 10 -2 7&#10;-7 -7 -11 19 -33 28 -23 4 4 6 2 4 -5 -6 -23 71 -102 111 -113 83 -22 300 -9&#10;309 18 2 7 13 12 25 12 33 0 119 53 157 96 18 21 47 68 63 104 25 53 31 82 35&#10;159 4 86 3 94 -13 88 -9 -4 -41 -10 -70 -13 -52 -6 -53 -6 -79 32 -50 73 -25&#10;130 64 149 59 13 137 45 152 62 9 12 9 15 1 9 -19 -11 -16 -1 4 15 14 12 16&#10;12 9 0 -6 -9 -5 -12 5 -9 8 3 13 11 12 17 -2 6 0 10 5 10 22 -4 34 6 77 63 25&#10;33 44 67 41 75 -3 7 -1 13 4 13 17 0 40 102 40 176 0 76 -29 178 -56 200 -8 6&#10;-14 16 -14 22 0 6 -3 12 -8 14 -4 2 -27 27 -51 55 l-44 53 27 34 c37 49 83&#10;150 97 212 10 43 9 65 -6 130 -9 44 -28 101 -42 127 -24 49 -104 137 -123 137&#10;-5 0 -17 -12 -26 -26 -24 -35 -88 -66 -131 -62 -40 3 -67 31 -83 87 -9 33 -7&#10;35 74 120 62 65 88 100 103 141 61 165 28 310 -106 461 l-37 42 -84 -86 c-70&#10;-74 -91 -90 -134 -102 -57 -16 -246 -34 -246 -24 0 3 -21 12 -46 19 -90 25&#10;-248 176 -290 276 -8 19 -16 70 -17 113 -2 72 0 80 28 115 54 69 56 74 47 197&#10;-10 139 -10 435 0 445 4 4 31 11 59 15 28 5 54 10 56 13 21 20 -109 152 -195&#10;199 -70 38 -171 58 -249 50 l-63 -6 0 -56 c0 -122 -37 -181 -115 -181 -73 0&#10;-106 48 -90 133 17 88 -1 201 -35 222 -5 3 -17 21 -26 40 -22 47 -87 120 -138&#10;153 -49 33 -154 78 -216 91 -44 10 -169 12 -220 4z m237 -190 c63 -36 133&#10;-141 133 -200 -1 -73 -94 -185 -165 -199 -51 -9 -121 2 -161 26 -42 27 -91&#10;100 -99 151 -13 75 57 200 128 229 39 15 130 11 164 -7z m930 -325 c-3 -8 -6&#10;-5 -6 6 -1 11 2 17 5 13 3 -3 4 -12 1 -19z m-248 -253 c42 -21 109 -102 121&#10;-144 19 -67 12 -110 -25 -171 -42 -69 -62 -83 -138 -100 -52 -12 -57 -15 -57&#10;-40 0 -27 0 -27 -91 -35 -50 -3 -93 -4 -97 -1 -3 4 1 19 10 34 58 98 56 86 24&#10;146 -40 75 -42 153 -4 217 24 41 78 88 118 102 31 11 112 6 139 -8z m-750 -71&#10;c45 -9 130 -89 157 -149 53 -112 13 -235 -99 -305 l-29 -18 2 -639 1 -638 -28&#10;-36 c-168 -216 -337 -393 -390 -408 -29 -9 -35 -6 -63 25 -39 45 -47 77 -26&#10;109 9 14 86 101 171 195 l154 170 -6 614 -6 615 -56 58 c-109 113 -109 229 1&#10;342 24 24 57 50 73 57 33 14 94 18 144 8z m418 -440 c32 -20 48 -78 33 -115&#10;-17 -40 -60 -69 -103 -69 -70 0 -114 100 -69 157 39 49 88 59 139 27z m260&#10;-313 c84 -54 117 -110 117 -200 1 -83 -31 -151 -92 -198 l-41 -31 -4 -285 -3&#10;-284 -95 -104 c-52 -57 -197 -209 -323 -338 l-228 -234 3 -459 4 -460 -24 -19&#10;c-54 -44 -115 -35 -143 21 -16 32 -18 78 -18 513 l0 479 218 221 c119 122 262&#10;268 317 326 l100 104 5 258 c5 236 4 260 -12 265 -26 8 -88 82 -110 132 -15&#10;34 -19 60 -16 112 4 84 36 136 111 185 44 29 61 34 112 34 53 1 67 -4 122 -38z&#10;m564 -451 c45 -13 123 -93 151 -157 43 -96 3 -222 -89 -283 l-53 -34 0 -272&#10;c0 -314 2 -307 -89 -324 -29 -5 -111 -10 -181 -10 -70 0 -168 -3 -218 -6 l-92&#10;-7 0 -108 0 -109 -172 -174 c-145 -146 -180 -176 -217 -187 -44 -13 -44 -13&#10;-72 21 -16 19 -29 41 -29 50 0 41 174 246 256 302 18 13 37 30 40 38 4 8 10&#10;67 14 130 8 130 21 164 75 206 l35 27 240 1 240 1 0 218 c0 119 -4 217 -8 217&#10;-16 0 -93 72 -108 102 -9 17 -18 63 -21 103 -5 63 -2 79 19 127 47 103 169&#10;158 279 128z m549 -560 c70 -36 120 -121 120 -205 0 -68 -23 -118 -79 -168&#10;l-41 -37 0 -234 c0 -254 0 -255 -57 -277 -13 -5 -156 -9 -316 -9 l-292 0 -184&#10;-190 -184 -190 2 -303 c2 -344 7 -326 -82 -345 -51 -10 -64 -4 -88 39 -6 13&#10;-10 135 -10 340 0 263 3 325 14 343 16 24 413 452 439 474 12 10 88 15 295 19&#10;l278 6 2 159 3 159 -59 57 c-77 76 -95 135 -70 227 16 58 44 92 102 125 65 37&#10;146 41 207 10z m388 -615 c-3 -3 -9 2 -12 12 -6 14 -5 15 5 6 7 -7 10 -15 7&#10;-18z m-671 -571 c170 -99 122 -350 -77 -395 -52 -12 -106 7 -157 54 -54 50&#10;-70 79 -78 143 -8 60 7 103 56 159 70 79 164 93 256 39z m-1170 -109 c26 -18&#10;43 -64 33 -90 -11 -28 -50 -62 -81 -70 -41 -10 -89 36 -89 84 0 69 82 115 137&#10;76z m1560 -361 c-3 -3 -12 -4 -19 -1 -8 3 -5 6 6 6 11 1 17 -2 13 -5z m-1750&#10;-169 c170 -85 145 -344 -40 -414 l-27 -11 0 -218 0 -218 44 -46 c56 -58 90&#10;-144 81 -202 -9 -56 -47 -118 -95 -156 -33 -26 -52 -33 -103 -37 -163 -13&#10;-279 132 -233 291 17 58 71 130 105 141 16 5 18 27 24 247 5 228 4 244 -14&#10;269 -94 132 -70 284 56 361 46 28 138 24 202 -7z m667 -289 c105 -72 146 -198&#10;97 -294 -32 -63 -101 -119 -157 -128 -134 -20 -256 88 -258 226 0 71 20 109&#10;97 186 62 61 62 61 112 56 37 -4 65 -15 109 -46z m454 -32 c17 -12 22 -25 22&#10;-60 0 -54 -26 -84 -71 -84 -37 0 -89 28 -90 50 -3 41 4 77 18 93 20 22 90 23&#10;121 1z m259 -101 c-2 -16 -4 -3 -4 27 0 30 2 43 4 28 2 -16 2 -40 0 -55z&#10;m-680 -600 c-3 -10 -5 -4 -5 12 0 17 2 24 5 18 2 -7 2 -21 0 -30z"/>
    <path d="M5701 8794 c-27 -35 -26 -59 4 -89 45 -46 108 -19 108 45 0 66 -73&#10;94 -112 44z"/>
    <path d="M6398 8213 c-25 -29 -29 -53 -13 -82 24 -47 69 -55 103 -18 28 29 28&#10;57 1 91 -24 31 -68 35 -91 9z"/>
    <path d="M5656 8109 c-41 -48 -29 -110 25 -133 40 -17 64 -11 89 22 35 44 25&#10;104 -21 127 -42 22 -64 18 -93 -16z"/>
    <path d="M6279 7401 c-31 -25 -33 -92 -4 -120 52 -50 135 -16 135 56 0 69 -78&#10;107 -131 64z"/>
    <path d="M6874 6899 c-20 -40 -11 -93 19 -114 50 -35 116 -7 132 56 5 19 0 34&#10;-20 57 -23 27 -34 32 -71 32 -39 0 -45 -3 -60 -31z"/>
    <path d="M7412 6377 c-12 -13 -22 -35 -22 -48 0 -31 48 -79 79 -79 31 0 71 43&#10;71 78 0 65 -83 97 -128 49z"/>
    <path d="M7130 5212 c-47 -38 -16 -122 44 -122 13 0 32 10 44 23 61 64 -20&#10;154 -88 99z"/>
    <path d="M5783 4580 c-45 -18 -55 -72 -22 -114 37 -46 110 -26 124 35 12 48&#10;-53 98 -102 79z"/>
    <path d="M5702 3684 c-29 -20 -31 -85 -2 -114 30 -30 83 -27 110 7 55 70 -34&#10;159 -108 107z"/>
    <path d="M6436 4271 c-33 -36 -21 -104 21 -119 34 -11 66 -1 87 30 23 33 20&#10;64 -10 87 -33 26 -76 27 -98 2z"/>
    <path d="M3066 8365 c-3 -9 -5 -65 -4 -123 l1 -107 7 120 c4 66 6 121 5 123&#10;-2 2 -5 -4 -9 -13z"/>
    <path d="M7006 8133 c-3 -4 -3 -77 0 -162 l7 -156 -47 -51 c-25 -29 -46 -59&#10;-46 -68 0 -53 75 -153 140 -186 51 -26 101 -33 176 -25 81 8 124 42 166 130&#10;24 51 28 73 28 141 0 75 -3 88 -40 160 -21 44 -61 101 -87 127 -46 48 -47 49&#10;-92 41 -26 -5 -73 -9 -106 -9 -58 0 -61 1 -76 32 -9 18 -19 29 -23 26z"/>
    <path d="M2808 8073 c-51 -39 -70 -63 -105 -128 -43 -80 -43 -80 -40 -176 2&#10;-84 6 -103 32 -154 19 -38 46 -72 75 -93 44 -34 46 -34 126 -29 44 2 94 12&#10;111 20 16 9 58 48 93 87 71 80 73 95 16 158 -44 49 -49 67 -49 197 0 60 -2 90&#10;-5 65 -3 -35 -6 -41 -12 -25 -8 18 -9 17 -9 -7 -1 -14 5 -28 12 -31 6 -2 9 -8&#10;5 -12 -9 -10 -38 19 -38 39 0 9 -8 16 -20 16 -13 0 -20 7 -20 20 0 11 -4 20&#10;-10 20 -5 0 -10 10 -10 21 0 17 -5 20 -25 17 -21 -4 -25 -1 -25 18 0 37 -31&#10;30 -102 -23z"/>
    <path d="M7901 4864 c0 -11 3 -14 6 -6 3 7 2 16 -1 19 -3 4 -6 -2 -5 -13z"/>
    <path d="M1112 8570 c0 -19 2 -27 5 -17 2 9 2 25 0 35 -3 9 -5 1 -5 -18z"/>
    <path d="M532 8020 c0 -14 2 -19 5 -12 2 6 2 18 0 25 -3 6 -5 1 -5 -13z"/>
    <path d="M688 7903 c6 -2 18 -2 25 0 6 3 1 5 -13 5 -14 0 -19 -2 -12 -5z"/>
    <path d="M760 7780 c0 -13 7 -20 20 -20 13 0 20 7 20 20 0 13 -7 20 -20 20&#10;-13 0 -20 -7 -20 -20z"/>
    <path d="M1112 7780 c0 -14 2 -19 5 -12 2 6 2 18 0 25 -3 6 -5 1 -5 -13z"/>
    <path d="M1858 7853 c7 -3 16 -2 19 1 4 3 -2 6 -13 5 -11 0 -14 -3 -6 -6z"/>
    <path d="M640 7633 c0 -25 0 -26 20 -8 11 10 20 22 20 27 0 4 -9 8 -20 8 -15&#10;0 -20 -7 -20 -27z"/>
    <path d="M408 7353 c6 -2 18 -2 25 0 6 3 1 5 -13 5 -14 0 -19 -2 -12 -5z"/>
    <path d="M752 7020 c0 -14 2 -19 5 -12 2 6 2 18 0 25 -3 6 -5 1 -5 -13z"/>
    <path d="M9248 6983 c6 -2 18 -2 25 0 6 3 1 5 -13 5 -14 0 -19 -2 -12 -5z"/>
    <path d="M9592 6220 c0 -14 2 -19 5 -12 2 6 2 18 0 25 -3 6 -5 1 -5 -13z"/>
    <path d="M9232 6220 c0 -14 2 -19 5 -12 2 6 2 18 0 25 -3 6 -5 1 -5 -13z"/>
    <path d="M9488 4833 c6 -2 18 -2 25 0 6 3 1 5 -13 5 -14 0 -19 -2 -12 -5z"/>
    <path d="M8872 4740 c0 -14 2 -19 5 -12 2 6 2 18 0 25 -3 6 -5 1 -5 -13z"/>
    <path d="M9585 4390 c3 -5 8 -10 11 -10 2 0 4 5 4 10 0 6 -5 10 -11 10 -5 0&#10;-7 -4 -4 -10z"/>
    <path d="M171 3534 c0 -11 3 -14 6 -6 3 7 2 16 -1 19 -3 4 -6 -2 -5 -13z"/>
    <path d="M9946 2613 c10 -40 14 -41 14 -5 0 18 -5 32 -10 32 -6 0 -8 -11 -4&#10;-27z"/>
    <path d="M523 1595 c0 -22 2 -30 4 -17 2 12 2 30 0 40 -3 9 -5 -1 -4 -23z"/>
    <path d="M9968 1683 c6 -2 18 -2 25 0 6 3 1 5 -13 5 -14 0 -19 -2 -12 -5z"/>
    <path d="M9231 1174 c0 -11 3 -14 6 -6 3 7 2 16 -1 19 -3 4 -6 -2 -5 -13z"/>
    <path d="M9002 1180 c0 -14 2 -19 5 -12 2 6 2 18 0 25 -3 6 -5 1 -5 -13z"/>
    <path d="M6858 783 c12 -2 32 -2 45 0 12 2 2 4 -23 4 -25 0 -35 -2 -22 -4z"/>
    <path d="M8652 500 c0 -14 2 -19 5 -12 2 6 2 18 0 25 -3 6 -5 1 -5 -13z"/>
    <path d="M8523 393 c9 -2 23 -2 30 0 6 3 -1 5 -18 5 -16 0 -22 -2 -12 -5z"/>
    <path d="M9942 420 c0 -14 2 -19 5 -12 2 6 2 18 0 25 -3 6 -5 1 -5 -13z"/>
    <path d="M522 250 c0 -19 2 -27 5 -17 2 9 2 25 0 35 -3 9 -5 1 -5 -18z"/>
    <path d="M1961 214 c0 -11 3 -14 6 -6 3 7 2 16 -1 19 -3 4 -6 -2 -5 -13z"/>
    <path d="M3062 20 c0 -14 2 -19 5 -12 2 6 2 18 0 25 -3 6 -5 1 -5 -13z"/>
  </g>
</svg>